<?xml version="1.0" encoding="utf-8"?>
<!-- Generator: Adobe Illustrator 16.0.0, SVG Export Plug-In . SVG Version: 6.00 Build 0)  -->
<!DOCTYPE svg PUBLIC "-//W3C//DTD SVG 1.1//EN" "http://www.w3.org/Graphics/SVG/1.1/DTD/svg11.dtd">
<svg version="1.1" id="Layer_1" xmlns="http://www.w3.org/2000/svg" xmlns:xlink="http://www.w3.org/1999/xlink" x="0px" y="0px"
	 width="24px" height="24px" viewBox="0 0 24 24" enable-background="new 0 0 24 24" xml:space="preserve">
<path fill="#FFFFFF" d="M12,3L2,5v14l10,2V3z M14,5v2h2v2h-2v2h2v2h-2v2h2v2h-2v2h7c0.553,0,1-0.447,1-1V6c0-0.552-0.447-1-1-1H14z
	 M18,7h2v2h-2V7z M4.176,8.297h1.777l0.924,2.215c0.075,0.181,0.131,0.391,0.189,0.629h0.025c0.033-0.143,0.1-0.361,0.201-0.646
	l1.029-2.197h1.621l-1.936,3.67L10,15.703H8.271l-1.113-2.414c-0.042-0.085-0.092-0.256-0.133-0.494H7.01
	c-0.025,0.113-0.075,0.285-0.15,0.514l-1.123,2.395H4l2.061-3.707L4.176,8.297z M18,11h2v2h-2V11z M18,15h2v2h-2V15z"/>
</svg>
