<?xml version="1.0" encoding="utf-8"?>
<!-- Generator: Adobe Illustrator 23.0.1, SVG Export Plug-In . SVG Version: 6.00 Build 0)  -->
<svg version="1.1" id="Capa_1" xmlns="http://www.w3.org/2000/svg" xmlns:xlink="http://www.w3.org/1999/xlink" x="0px" y="0px"
	 viewBox="0 0 293.52 293.52" style="enable-background:new 0 0 293.52 293.52;" xml:space="preserve">
<style type="text/css">
	.st0{fill:#FDFEFE;}
	.st1{fill:#033898;}
	.st2{fill:#F7FAFA;}
	.st3{fill:#FDF002;}
</style>
<g>
	<g>
		<path class="st0" d="M151.68,0.24c47.36,0,94.72,0,142.08,0c0,47.12,0,94.24,0,141.36c-0.07-0.16-0.2-0.31-0.22-0.48
			c-0.41-4.53-0.71-9.07-1.22-13.58c-0.8-7.12-2.35-14.11-4.34-20.98c-3.31-11.45-7.95-22.33-13.93-32.66
			c-5.99-10.35-13.11-19.84-21.39-28.45c-9.21-9.58-19.52-17.78-30.96-24.57c-7.8-4.63-15.95-8.52-24.46-11.66
			c-7.78-2.86-15.74-5.13-23.92-6.48c-5.5-0.91-11.07-1.39-16.6-2.04C155.05,0.5,153.36,0.39,151.68,0.24z"/>
		<path class="st0" d="M0.24,136.56c0-45.42,0-90.84,0-136.32c46.08,0,92.16,0,138.24,0c-0.31,0.16-0.62,0.43-0.94,0.45
			c-1.59,0.13-3.18,0.14-4.77,0.31c-7.6,0.81-15.13,2.08-22.54,4.01C95.08,8.97,80.92,15.19,67.77,23.68
			C54.34,32.34,42.6,42.91,32.6,55.38c-9.27,11.57-16.65,24.23-22.1,38.02c-3.67,9.27-6.34,18.82-8.04,28.64
			c-0.71,4.1-1.18,8.24-1.76,12.36C0.55,135.12,0.39,135.84,0.24,136.56z"/>
		<path class="st0" d="M293.76,151.92c0,47.28,0,94.56,0,141.84c-44.64,0-89.28,0-133.92,0c0.33-0.16,0.64-0.39,0.99-0.46
			c0.94-0.2,1.9-0.33,2.85-0.49c2-0.31,4-0.62,6.01-0.92c10.35-1.56,20.4-4.25,30.13-8.06c21.17-8.3,39.51-20.8,54.95-37.52
			c10.54-11.41,19.06-24.16,25.56-38.26c5.44-11.81,9.24-24.12,11.34-36.96c1-6.11,1.67-12.24,1.88-18.43
			C293.55,152.4,293.68,152.16,293.76,151.92z"/>
		<path class="st0" d="M134.64,293.76c-44.8,0-89.6,0-134.4,0c0-47.28,0-94.56,0-141.84c0.07,0.21,0.2,0.41,0.21,0.62
			c0.34,4.29,0.51,8.61,1.03,12.88c0.85,7.04,2.29,13.97,4.2,20.81c6.17,22.05,16.97,41.55,32.19,58.61
			c8.69,9.74,18.55,18.14,29.5,25.24c17.86,11.57,37.33,18.92,58.38,22.06c0.52,0.91,1.22,0.56,1.91,0.27
			c0.24,0.05,0.48,0.09,0.73,0.14c0.3,0.33,0.74,0.39,1.93,0.27c0.16,0.01,0.33,0.02,0.49,0.03c0.26,0.07,0.51,0.14,0.77,0.2
			C132.6,293.28,133.62,293.52,134.64,293.76z"/>
		<path class="st1" d="M125.76,292.13c-21.05-3.14-40.51-10.49-58.38-22.06c-10.96-7.1-20.81-15.51-29.5-25.24
			c-15.23-17.06-26.03-36.56-32.19-58.61c-1.91-6.84-3.34-13.77-4.2-20.81c-0.52-4.27-0.69-8.59-1.03-12.88
			c-0.02-0.21-0.14-0.41-0.21-0.62c0-3.2,0-6.4,0-9.6c0.15-2.64,0.31-5.28,0.46-7.92c0.58-4.12,1.05-8.26,1.76-12.36
			c1.71-9.81,4.38-19.36,8.04-28.64c5.45-13.79,12.83-26.46,22.1-38.02c10-12.48,21.73-23.04,35.16-31.71
			c13.16-8.49,27.31-14.71,42.47-18.66c7.41-1.93,14.93-3.2,22.54-4.01c1.58-0.17,3.18-0.17,4.77-0.31c0.32-0.03,0.63-0.3,0.94-0.45
			c4.4,0,8.8,0,13.2,0c1.68,0.15,3.37,0.26,5.04,0.46c5.54,0.65,11.11,1.13,16.6,2.04c8.18,1.35,16.13,3.62,23.92,6.48
			c8.51,3.13,16.66,7.02,24.46,11.66c11.43,6.79,21.75,14.99,30.96,24.57c8.28,8.61,15.4,18.1,21.39,28.45
			c5.97,10.33,10.62,21.21,13.93,32.66c1.99,6.88,3.54,13.86,4.34,20.98c0.51,4.52,0.81,9.05,1.22,13.58
			c0.01,0.16,0.14,0.32,0.22,0.48c0,3.44,0,6.88,0,10.32c-0.08,0.24-0.21,0.48-0.22,0.73c-0.21,6.19-0.88,12.32-1.88,18.43
			c-2.1,12.84-5.91,25.15-11.34,36.96c-6.49,14.1-15.02,26.85-25.56,38.26c-15.44,16.72-33.78,29.22-54.95,37.52
			c-9.73,3.82-19.78,6.5-30.13,8.06c-2,0.3-4,0.62-6.01,0.92c-2.63,0.18-5.26,0.35-7.88,0.54c-1.61,0.12-3.22,0.27-4.83,0.41
			c-2.64,0-5.28,0-7.92,0c-1.32-0.11-2.64-0.24-3.96-0.34c-2.76-0.2-5.52-0.39-8.28-0.58c-0.16-0.01-0.33-0.02-0.49-0.03
			c-0.64-0.09-1.28-0.18-1.93-0.27c-0.24-0.05-0.48-0.09-0.73-0.14C127.03,292.31,126.39,292.22,125.76,292.13z M147.01,291.6
			c79.47,0.01,144.51-64.85,144.59-144.18C291.68,67.53,226.88,2.5,147.22,2.39C67.59,2.27,2.36,67.28,2.39,147.08
			C2.42,226.65,67.37,291.59,147.01,291.6z"/>
		<path class="st2" d="M150.96,293.76c1.61-0.14,3.22-0.29,4.83-0.41c2.63-0.19,5.26-0.36,7.88-0.54c-0.95,0.16-1.91,0.29-2.85,0.49
			c-0.35,0.07-0.66,0.31-0.99,0.46C156.88,293.76,153.92,293.76,150.96,293.76z"/>
		<path class="st2" d="M130.81,292.84c2.76,0.19,5.52,0.38,8.28,0.58c1.32,0.1,2.64,0.22,3.96,0.34c-2.8,0-5.6,0-8.4,0
			c-1.02-0.24-2.04-0.48-3.07-0.72C131.32,292.98,131.06,292.91,130.81,292.84z"/>
		<path class="st2" d="M0.7,134.4c-0.15,2.64-0.31,5.28-0.46,7.92c0-1.92,0-3.84,0-5.76C0.39,135.84,0.55,135.12,0.7,134.4z"/>
		<path class="st2" d="M125.76,292.13c0.64,0.09,1.27,0.18,1.91,0.27C126.98,292.69,126.28,293.04,125.76,292.13z"/>
		<path class="st2" d="M128.39,292.54c0.64,0.09,1.28,0.18,1.93,0.27C129.13,292.94,128.69,292.88,128.39,292.54z"/>
		<path class="st2" d="M147.01,291.6C67.37,291.59,2.42,226.65,2.39,147.08C2.36,67.28,67.59,2.27,147.22,2.39
			C226.88,2.5,291.68,67.53,291.6,147.42C291.52,226.75,226.48,291.6,147.01,291.6z M267.53,216.81c-6.01,0-11.76,0-17.52,0
			c-12.12,0-24.24,0-36.36,0c-59.52,0-119.04,0-178.56-0.01c-2.32,0-4.64,0.02-6.96-0.01c-1.12-0.02-1.27-0.32-0.72-1.29
			c4.19-7.41,8.36-14.84,12.61-22.22c2.24-3.89,4.68-7.65,6.93-11.53c4.76-8.21,9.43-16.47,14.17-24.69
			c3.16-5.49,6.38-10.94,9.56-16.42c5.03-8.67,10.05-17.34,15.07-26.02c2.97-5.13,5.94-10.27,8.91-15.4
			c2.22-3.83,4.44-7.65,6.65-11.48c3.73-6.43,7.46-12.87,11.18-19.31c3.14-5.43,6.27-10.85,9.37-16.3c1.28-2.24,2.39-4.58,3.68-6.82
			c0.93-1.61,2.07-3.09,3.01-4.7c2.58-4.39,5.09-8.82,7.64-13.22c3.5-6.05,6.99-12.09,10.51-18.13c0.68-1.16,1.15-1.14,1.84,0.04
			c2.72,4.69,5.44,9.39,8.16,14.08c3.26,5.63,6.54,11.25,9.79,16.88c4.37,7.57,8.71,15.16,13.08,22.73
			c3.65,6.32,7.35,12.62,11,18.94c4.39,7.6,8.74,15.22,13.13,22.82c4.09,7.09,8.2,14.16,12.3,21.24
			c4.06,7.01,8.12,14.02,12.18,21.03c3.67,6.32,7.35,12.63,11,18.96c4.1,7.12,8.16,14.26,12.26,21.38
			c4.28,7.43,8.59,14.85,12.89,22.28c1.18,2.04,2.36,4.09,3.6,6.22c0.19-0.31,0.29-0.48,0.39-0.65c3.87-6.75,7.1-13.8,9.74-21.12
			c5.28-14.6,7.97-29.67,8.22-45.17c0.14-8.68-0.61-17.3-2.1-25.86c-2.01-11.55-5.42-22.66-10.29-33.31
			c-7.86-17.2-18.73-32.23-32.67-45.04c-12.83-11.8-27.33-20.9-43.53-27.32c-12.88-5.1-26.24-8.13-40.03-9.18
			c-7.58-0.58-15.17-0.51-22.76,0.14c-7.8,0.68-15.49,1.97-23.05,3.97c-20.82,5.53-39.43,15.29-55.67,29.45
			c-3.34,2.91-6.44,6.09-9.59,9.2c-4.4,4.32-8.24,9.11-11.9,14.06c-8.13,11.01-14.44,22.98-19.01,35.86
			c-4.48,12.62-7.05,25.65-7.71,39.02c-0.63,12.95,0.4,25.78,3.37,38.41c4.73,20.13,13.39,38.4,26.33,54.56
			c3.43,4.29,7.05,8.46,10.92,12.35c3.92,3.93,8.15,7.56,12.44,11.1c6.39,5.27,13.36,9.71,20.69,13.57
			c3.93,2.07,7.91,4.12,12.05,5.7c6.01,2.29,12.17,4.19,18.29,6.17c1.88,0.61,3.82,1.07,5.77,1.39c5.26,0.87,10.53,1.7,15.81,2.42
			c2.03,0.27,4.1,0.16,6.15,0.28c1.58,0.09,3.16,0.38,4.74,0.41c9.32,0.16,18.58-0.56,27.74-2.34c3.8-0.74,7.58-1.58,11.32-2.57
			c7.07-1.87,13.95-4.33,20.58-7.45c1.66-0.78,3.2-1.85,4.84-2.67c1.59-0.79,3.3-1.32,4.86-2.16c2.32-1.24,4.61-2.56,6.8-4.01
			c2.51-1.66,4.89-3.53,7.35-5.26c1.13-0.8,2.39-1.42,3.5-2.25c1.72-1.28,3.38-2.65,5.03-4.02c1.3-1.08,2.6-2.18,3.81-3.37
			c2.37-2.35,5.04-4.39,7-7.18c1.19-1.69,3.09-2.85,4.41-4.47c3.43-4.23,6.8-8.51,10.03-12.9
			C263.84,222.88,265.55,219.9,267.53,216.81z M253.69,210.24c-0.28-1.03-0.4-1.84-0.72-2.56c-0.36-0.82-0.9-1.56-1.34-2.34
			c-4.5-7.86-8.97-15.75-13.51-23.59c-10.28-17.76-20.61-35.49-30.9-53.25C197.1,111.02,187,93.52,176.89,76.02
			c-8.35-14.45-16.69-28.91-25.04-43.37c-1.5-2.59-3.06-5.15-4.43-7.81c-0.82-1.59-1.39-1.81-2.54-0.48
			c-0.21,0.24-0.38,0.52-0.54,0.79c-3.94,6.85-7.86,13.72-11.81,20.56c-6.03,10.44-12.1,20.86-18.13,31.3
			c-4.52,7.81-8.99,15.65-13.51,23.46c-7.22,12.47-14.5,24.91-21.7,37.39c-9.24,16.01-18.43,32.05-27.66,48.07
			c-4.16,7.23-8.34,14.45-12.54,21.66c-0.45,0.77-0.38,1.47,0.31,1.79c0.53,0.24,1.28,0.01,1.93-0.04c0.29-0.02,0.6-0.2,0.87-0.16
			c0.56,0.08,1.1,0.38,1.65,0.38c9.67,0.02,19.34-0.02,29.01,0.02c20.22,0.08,40.43,0.2,60.65,0.29
			c20.51,0.08,41.01,0.14,61.52,0.21c17.03,0.06,34.06,0.11,51.09,0.17C248.45,210.25,250.88,210.24,253.69,210.24z"/>
		<path class="st1" d="M267.53,216.81c-1.98,3.08-3.69,6.06-5.71,8.82c-3.22,4.39-6.59,8.67-10.03,12.9
			c-1.31,1.62-3.22,2.78-4.41,4.47c-1.97,2.79-4.63,4.83-7,7.18c-1.2,1.19-2.5,2.28-3.81,3.37c-1.65,1.37-3.31,2.74-5.03,4.02
			c-1.11,0.83-2.37,1.45-3.5,2.25c-2.46,1.73-4.84,3.6-7.35,5.26c-2.19,1.45-4.48,2.77-6.8,4.01c-1.56,0.84-3.27,1.37-4.86,2.16
			c-1.65,0.82-3.18,1.89-4.84,2.67c-6.63,3.12-13.5,5.58-20.58,7.45c-3.74,0.99-7.52,1.83-11.32,2.57
			c-9.16,1.78-18.42,2.5-27.74,2.34c-1.58-0.03-3.16-0.32-4.74-0.41c-2.05-0.12-4.13-0.01-6.15-0.28
			c-5.28-0.72-10.55-1.54-15.81-2.42c-1.95-0.32-3.89-0.78-5.77-1.39c-6.12-1.98-12.29-3.88-18.29-6.17
			c-4.14-1.58-8.12-3.63-12.05-5.7c-7.32-3.86-14.3-8.3-20.69-13.57c-4.29-3.53-8.52-7.17-12.44-11.1
			c-3.87-3.88-7.49-8.06-10.92-12.35c-12.94-16.16-21.6-34.43-26.33-54.56c-2.97-12.63-4.01-25.46-3.37-38.41
			c0.66-13.37,3.23-26.4,7.71-39.02c4.57-12.88,10.88-24.85,19.01-35.86c3.66-4.95,7.5-9.74,11.9-14.06
			c3.16-3.11,6.26-6.29,9.59-9.2c16.25-14.16,34.85-23.93,55.67-29.45c7.56-2.01,15.25-3.3,23.05-3.97
			c7.59-0.66,15.18-0.72,22.76-0.14c13.79,1.05,27.15,4.08,40.03,9.18c16.2,6.42,30.7,15.52,43.53,27.32
			c13.94,12.81,24.81,27.84,32.67,45.04c4.87,10.65,8.28,21.76,10.29,33.31c1.49,8.56,2.23,17.18,2.1,25.86
			c-0.25,15.5-2.93,30.58-8.22,45.17c-2.65,7.32-5.87,14.37-9.74,21.12c-0.1,0.17-0.2,0.34-0.39,0.65c-1.23-2.13-2.41-4.17-3.6-6.22
			c-4.3-7.43-8.6-14.84-12.89-22.28c-4.1-7.12-8.16-14.26-12.26-21.38c-3.65-6.33-7.34-12.64-11-18.96
			c-4.06-7.01-8.12-14.02-12.18-21.03c-4.1-7.08-8.21-14.16-12.3-21.24c-4.38-7.6-8.74-15.22-13.13-22.82
			c-3.65-6.32-7.35-12.62-11-18.94c-4.37-7.57-8.71-15.16-13.08-22.73c-3.25-5.63-6.53-11.25-9.79-16.88
			c-2.72-4.69-5.44-9.39-8.16-14.08c-0.69-1.18-1.16-1.2-1.84-0.04c-3.51,6.04-7.01,12.08-10.51,18.13
			c-2.55,4.41-5.06,8.83-7.64,13.22c-0.94,1.6-2.09,3.09-3.01,4.7c-1.28,2.24-2.4,4.57-3.68,6.82c-3.1,5.45-6.24,10.87-9.37,16.3
			c-3.72,6.44-7.46,12.87-11.18,19.31c-2.22,3.83-4.44,7.65-6.65,11.48c-2.97,5.13-5.94,10.27-8.91,15.4
			c-5.02,8.67-10.04,17.35-15.07,26.02c-3.18,5.48-6.4,10.93-9.56,16.42c-4.74,8.22-9.42,16.48-14.17,24.69
			c-2.25,3.88-4.69,7.65-6.93,11.53c-4.25,7.38-8.41,14.81-12.61,22.22c-0.55,0.97-0.4,1.27,0.72,1.29
			c2.32,0.04,4.64,0.01,6.96,0.01c59.52,0,119.04,0,178.56,0.01c12.12,0,24.24,0,36.36,0C255.77,216.81,261.52,216.81,267.53,216.81
			z"/>
		<path class="st1" d="M253.69,210.24c-2.81,0-5.24,0.01-7.67,0c-17.03-0.05-34.06-0.11-51.09-0.17
			c-20.51-0.07-41.01-0.13-61.52-0.21c-20.22-0.08-40.43-0.21-60.65-0.29c-9.67-0.04-19.34,0-29.01-0.02c-0.55,0-1.09-0.3-1.65-0.38
			c-0.28-0.04-0.58,0.14-0.87,0.16c-0.65,0.05-1.4,0.28-1.93,0.04c-0.69-0.32-0.76-1.02-0.31-1.79c4.2-7.21,8.38-14.43,12.54-21.66
			c9.22-16.02,18.42-32.06,27.66-48.07c7.21-12.48,14.48-24.92,21.7-37.39c4.52-7.81,8.99-15.65,13.51-23.46
			c6.03-10.44,12.1-20.86,18.13-31.3c3.96-6.84,7.87-13.71,11.81-20.56c0.16-0.28,0.33-0.55,0.54-0.79
			c1.15-1.33,1.72-1.11,2.54,0.48c1.37,2.66,2.93,5.22,4.43,7.81c8.34,14.46,16.69,28.92,25.04,43.37
			c10.11,17.5,20.21,34.99,30.33,52.48c10.29,17.76,20.62,35.49,30.9,53.25c4.54,7.84,9,15.73,13.51,23.59
			c0.45,0.78,0.99,1.52,1.34,2.34C253.29,208.4,253.41,209.21,253.69,210.24z M246.52,207.13c0.02-0.08,0.04-0.17,0.06-0.25
			c-0.34-0.2-0.67-0.42-1.01-0.61c-9.47-5.41-18.94-10.82-28.41-16.23c-23.41-13.39-46.83-26.77-70.23-40.18
			c-0.59-0.34-1-0.37-1.62-0.01c-12.51,7.17-25.03,14.3-37.55,21.45c-19.21,10.98-38.41,21.97-57.62,32.95
			c-1.12,0.64-2.23,1.29-3.35,1.94c0.03,0.06,0.06,0.13,0.08,0.19C113.42,206.63,179.97,206.88,246.52,207.13z M246.25,202.8
			c0.09-0.07,0.18-0.15,0.27-0.22c-32.97-57.02-65.95-114.03-98.92-171.05c-0.08,0.02-0.15,0.05-0.23,0.07c0,0.35,0,0.69,0,1.04
			c0,37.52,0,75.03-0.02,112.55c0,0.86,0.32,1.26,1.01,1.65c12.74,7.26,25.46,14.55,38.18,21.83c15.78,9.02,31.57,18.04,47.35,27.06
			C238.01,198.08,242.13,200.44,246.25,202.8z M144.24,32.14c-0.08,0-0.15-0.01-0.23-0.01c-32.88,56.85-65.76,113.71-98.64,170.56
			c0.1,0.07,0.19,0.15,0.29,0.22c0.31-0.15,0.62-0.3,0.92-0.47c11.82-6.76,23.64-13.51,35.46-20.27
			c20.42-11.68,40.83-23.36,61.26-35.01c0.73-0.42,0.96-0.87,0.96-1.68c-0.02-37.4-0.02-74.8-0.02-112.2
			C144.24,32.9,144.24,32.52,144.24,32.14z"/>
		<path class="st3" d="M246.52,207.13c-66.55-0.25-133.09-0.5-199.64-0.75c-0.03-0.06-0.06-0.13-0.08-0.19
			c1.11-0.65,2.23-1.3,3.35-1.94c19.21-10.99,38.41-21.98,57.62-32.95c12.52-7.15,25.04-14.28,37.55-21.45
			c0.62-0.36,1.03-0.32,1.62,0.01c23.4,13.4,46.82,26.79,70.23,40.18c9.47,5.41,18.94,10.82,28.41,16.23
			c0.34,0.19,0.67,0.41,1.01,0.61C246.56,206.97,246.54,207.05,246.52,207.13z"/>
		<path class="st3" d="M246.25,202.8c-4.12-2.36-8.24-4.72-12.36-7.07c-15.78-9.02-31.57-18.04-47.35-27.06
			c-12.73-7.28-25.45-14.56-38.18-21.83c-0.69-0.39-1.01-0.8-1.01-1.65c0.03-37.52,0.02-75.03,0.02-112.55c0-0.35,0-0.69,0-1.04
			c0.08-0.02,0.15-0.05,0.23-0.07c32.97,57.02,65.95,114.03,98.92,171.05C246.42,202.65,246.34,202.73,246.25,202.8z"/>
		<path class="st3" d="M144.24,32.14c0,0.38,0,0.76,0,1.14c0,37.4,0,74.8,0.02,112.2c0,0.81-0.22,1.26-0.96,1.68
			c-20.43,11.65-40.84,23.34-61.26,35.01c-11.82,6.76-23.64,13.52-35.46,20.27c-0.3,0.17-0.61,0.31-0.92,0.47
			c-0.1-0.07-0.19-0.15-0.29-0.22c32.88-56.85,65.76-113.71,98.64-170.56C144.09,32.13,144.16,32.13,144.24,32.14z"/>
	</g>
</g>
</svg>
