<?xml version="1.0" encoding="utf-8"?>
<!-- Generator: Adobe Illustrator 23.0.1, SVG Export Plug-In . SVG Version: 6.00 Build 0)  -->
<svg version="1.1" id="Capa_1" xmlns="http://www.w3.org/2000/svg" xmlns:xlink="http://www.w3.org/1999/xlink" x="0px" y="0px"
	 viewBox="0 0 2048 2732" style="enable-background:new 0 0 2048 2732;" xml:space="preserve">
<style type="text/css">
	.st0{fill:#FEFEFE;}
	.st1{fill:#033798;}
	.st2{fill:#5F94DB;}
	.st3{fill:#6399DC;}
	.st4{fill:#FDFDFD;}
	.st5{fill:#023798;}
	.st6{fill:#FDFEFE;}
	.st7{fill:#FEF001;}
</style>
<g>
	<g>
		<path class="st0" d="M864.53,1388.63c0-48.72,0-97.44,0-146.16c48.64,0,97.28,0,145.92,0c-0.35,0.05-0.69,0.13-1.04,0.15
			c-2.55,0.11-5.11,0.18-7.66,0.31c-6.5,0.31-12.94,1.2-19.31,2.49c-14.45,2.92-28.18,7.89-41.11,14.97
			c-16.02,8.79-29.99,20.13-41.82,34.08c-7.83,9.23-14.48,19.26-19.81,30.13c-9.71,19.79-14.79,40.69-15.01,62.75
			C864.68,1387.77,864.58,1388.2,864.53,1388.63z"/>
		<path class="st0" d="M1006.61,1535.99c-47.36,0-94.72,0-142.08,0c0-48.72,0-97.44,0-146.16c0.05,0.47,0.12,0.94,0.15,1.42
			c0.34,5.14,0.57,10.28,1.04,15.41c0.69,7.39,2.26,14.62,4.25,21.76c4.05,14.59,10.25,28.21,18.55,40.88
			c8.49,12.97,18.77,24.32,30.82,34.06c9.66,7.82,20.16,14.29,31.47,19.44c10.79,4.91,22,8.47,33.67,10.6
			c7.31,1.34,14.67,2.2,22.1,2.37C1006.63,1535.85,1006.64,1535.92,1006.61,1535.99z"/>
		<path class="st0" d="M1158.05,1393.43c0,47.52,0,95.04,0,142.56c-47.44,0-94.88,0-142.32,0c0.01-0.07,0.02-0.14,0.05-0.2
			c5.8-0.5,11.64-0.74,17.4-1.55c9.67-1.36,19.1-3.83,28.28-7.2c19.09-7.01,36.01-17.54,50.74-31.53
			c14.24-13.52,25.38-29.27,33.31-47.26c7.69-17.44,11.87-35.69,12.34-54.76l0.11,0L1158.05,1393.43z"/>
		<path class="st0" d="M1015.97,1242.47c47.36,0,94.72,0,142.08,0c0,47.36,0,94.72,0,142.08c-0.07-0.02-0.14-0.03-0.21-0.03
			c-0.4-4.89-0.69-9.79-1.22-14.66c-0.77-7.04-2.32-13.94-4.26-20.75c-3.68-12.95-9.09-25.14-16.15-36.6
			c-5.59-9.07-12.09-17.45-19.51-25.1c-9.16-9.46-19.38-17.57-30.7-24.31c-7.8-4.64-15.95-8.53-24.46-11.65
			c-7.71-2.83-15.58-5.11-23.69-6.41c-5.54-0.89-11.14-1.43-16.71-2.1C1019.42,1242.74,1017.7,1242.63,1015.97,1242.47z"/>
		<path class="st1" d="M1015.97,1242.47c1.72,0.15,3.45,0.26,5.16,0.47c5.57,0.67,11.17,1.21,16.71,2.1
			c8.11,1.31,15.98,3.59,23.69,6.41c8.52,3.12,16.66,7.01,24.46,11.65c11.32,6.73,21.54,14.85,30.7,24.31
			c7.42,7.66,13.91,16.03,19.51,25.1c7.06,11.46,12.47,23.65,16.15,36.6c1.94,6.81,3.49,13.71,4.26,20.75
			c0.53,4.87,0.82,9.77,1.22,14.66c0,2.99,0.01,5.98,0.01,8.96c-0.47,19.07-4.65,37.32-12.34,54.76
			c-7.93,17.98-19.07,33.74-33.31,47.26c-14.73,13.99-31.65,24.51-50.74,31.53c-9.18,3.37-18.61,5.84-28.28,7.2
			c-5.76,0.81-11.6,1.05-17.4,1.55c-3.07,0-6.13-0.01-9.2-0.01c-7.43-0.18-14.79-1.03-22.1-2.37c-11.67-2.14-22.88-5.7-33.67-10.6
			c-11.32-5.14-21.81-11.62-31.47-19.44c-12.05-9.75-22.33-21.09-30.82-34.06c-8.3-12.67-14.5-26.29-18.55-40.88
			c-1.98-7.14-3.56-14.37-4.25-21.76c-0.48-5.12-0.7-10.27-1.04-15.41c-0.03-0.47-0.1-0.94-0.15-1.42c0-0.4,0-0.8,0-1.2
			c0.05-0.43,0.14-0.86,0.15-1.29c0.22-22.06,5.31-42.97,15.01-62.75c5.33-10.87,11.98-20.89,19.81-30.13
			c11.83-13.95,25.8-25.29,41.82-34.08c12.93-7.09,26.66-12.06,41.11-14.97c6.37-1.29,12.81-2.18,19.31-2.49
			c2.55-0.12,5.11-0.2,7.66-0.31c0.35-0.01,0.69-0.1,1.04-0.15C1012.29,1242.47,1014.13,1242.47,1015.97,1242.47z M1009.72,1244.64
			c-78.54,0.74-143.36,65.33-143.03,145.32c0.32,79.07,65.56,145.21,147.24,143.87c77.58-1.28,143.08-65.43,141.94-146.87
			C1154.79,1308.7,1090.15,1243.82,1009.72,1244.64z"/>
		<path class="st2" d="M1006.59,1535.78c3.07,0,6.13,0.01,9.2,0.01c-0.03,0.07-0.04,0.13-0.05,0.2c-3.04,0-6.08,0-9.12,0
			C1006.64,1535.92,1006.63,1535.85,1006.59,1535.78z"/>
		<path class="st3" d="M1157.86,1393.49c0-2.99-0.01-5.98-0.01-8.96c0.07,0,0.14,0.01,0.21,0.03c0,2.96,0,5.92,0,8.88l-0.09,0.06
			L1157.86,1393.49z"/>
		<path class="st4" d="M1009.72,1244.64c80.43-0.82,145.06,64.05,146.15,142.32c1.13,81.44-64.37,145.59-141.94,146.87
			c-81.68,1.35-146.92-64.79-147.24-143.87C866.36,1309.97,931.19,1245.38,1009.72,1244.64z M1123.27,1471.7l0.01-0.01
			c1.76-2.56,3.52-5.12,5.28-7.68c0.38-0.57,0.76-1.14,1.15-1.7c0.24-0.4,0.48-0.8,0.72-1.2c0.41-0.72,0.81-1.44,1.22-2.16
			l-0.02,0.02c1.03,0.06,0.6-0.91,0.85-1.34c3.93-6.8,7.21-13.91,9.88-21.31c4.49-12.44,7.24-25.26,7.91-38.45
			c0.32-6.29,0.25-12.64-0.2-18.92c-0.43-6.06-1.26-12.14-2.46-18.1c-3.27-16.11-9.4-31.12-18.12-45.06
			c-7.83-12.52-17.41-23.5-28.7-33.01c-11.85-9.98-24.98-17.76-39.4-23.39c-13.81-5.39-28.14-8.42-42.93-9.17
			c-10.48-0.53-20.92,0.05-31.27,1.91c-12.6,2.27-24.7,6.13-36.22,11.74c-10.78,5.25-20.74,11.74-29.86,19.53
			c-6.76,5.77-12.89,12.14-18.45,19.06c-7.6,9.48-13.87,19.77-18.77,30.89c-7.2,16.33-11.11,33.42-11.69,51.26
			c-0.32,9.69,0.29,19.32,2,28.87c1.74,9.75,4.44,19.23,8.25,28.38c2.69,6.47,5.7,12.79,9.45,18.73c0.32,0.5,0.63,1,0.95,1.51
			c0.25,0.4,0.49,0.8,0.74,1.2c1.19,1.77,2.38,3.53,3.56,5.29c0.25,0.38,0.5,0.75,0.75,1.13c0,0,0.03,0.05,0.03,0.05
			c0.78,1.06,1.56,2.11,2.34,3.17c0.41,0.54,0.82,1.09,1.23,1.63c0.22,0.25,0.45,0.49,0.67,0.74c0.27,0.39,0.55,0.79,0.82,1.18
			c1.58,1.84,3.16,3.68,4.74,5.51c1.27,1.37,2.54,2.73,3.82,4.1c0.16,0.16,0.33,0.33,0.49,0.49c1.59,1.52,3.19,3.04,4.78,4.55
			c0.66,0.64,1.32,1.27,1.98,1.91c0.3,0.24,0.6,0.49,0.91,0.73c1.92,1.61,3.85,3.22,5.77,4.84c0.17,0.14,0.33,0.29,0.5,0.43
			c0.32,0.24,0.64,0.48,0.97,0.72c1.99,1.44,3.98,2.89,5.97,4.33c0.25,0.16,0.49,0.32,0.74,0.48c1.6,1.04,3.19,2.08,4.79,3.13
			c0.4,0.25,0.8,0.5,1.2,0.75c0.65,0.39,1.31,0.78,1.96,1.16c0.39,0.25,0.76,0.54,1.16,0.76c0.76,0.41,1.55,0.79,2.33,1.18
			c0.43,0.23,0.86,0.47,1.29,0.7c0.96,0.48,1.91,0.96,2.87,1.44c0.96,0.49,1.92,0.97,2.88,1.46c0.4,0.2,0.81,0.4,1.21,0.59
			c1.36,0.59,2.72,1.17,4.08,1.76c0.64,0.3,1.28,0.59,1.92,0.89c1.36,0.5,2.73,1,4.09,1.5c0.95,0.34,1.89,0.67,2.84,1.01
			c0.65,0.22,1.3,0.44,1.95,0.66c1.45,0.47,2.9,0.94,4.35,1.4c0.39,0.09,0.78,0.19,1.17,0.28c0.16,0.07,0.32,0.13,0.48,0.2
			c0.64,0.17,1.29,0.33,1.93,0.5c1.21,0.31,2.42,0.62,3.64,0.93c1.27,0.25,2.53,0.51,3.8,0.76c1.51,0.31,3.02,0.61,4.53,0.92
			c0.88,0.12,1.76,0.23,2.65,0.35c0.73,0.13,1.47,0.26,2.2,0.38c0.46,0.03,0.93,0.07,1.39,0.1c0.9,0.13,1.79,0.25,2.69,0.38
			c1.27,0.09,2.54,0.18,3.81,0.27c0.65,0.07,1.3,0.13,1.95,0.2c0.87,0.02,1.74,0.03,2.62,0.05c0.75,0.08,1.49,0.22,2.24,0.21
			c2.93-0.03,5.86-0.12,8.78-0.18c1.19-0.03,2.37-0.05,3.56-0.08c0.66-0.07,1.32-0.13,1.98-0.2c1.99-0.17,3.97-0.34,5.96-0.51
			c0.25-0.06,0.49-0.13,0.74-0.19c0.31-0.02,0.63-0.03,0.94-0.05c0.33-0.07,0.66-0.14,0.99-0.21c0.8-0.09,1.6-0.18,2.4-0.28
			c0.82-0.21,1.63-0.45,2.46-0.61c1.9-0.36,3.8-0.68,5.7-1.01c1.3-0.31,2.59-0.61,3.89-0.92c0.45-0.16,0.89-0.35,1.35-0.46
			c0.81-0.2,1.64-0.36,2.46-0.54c0.71-0.18,1.42-0.36,2.14-0.54c0.57-0.23,1.13-0.45,1.7-0.68c2.58-0.86,5.15-1.71,7.73-2.57
			c1.66-0.66,3.32-1.33,4.99-1.99c1.67-0.73,3.33-1.46,5-2.2c0.74-0.38,1.48-0.76,2.22-1.14c0.56-0.26,1.11-0.52,1.67-0.78
			c0.98-0.53,1.96-1.05,2.94-1.58c1.92-1.12,3.84-2.25,5.76-3.37c0.16-0.08,0.33-0.15,0.49-0.23c0.63-0.39,1.26-0.78,1.89-1.17
			c1.06-0.3,1.39-1.7,2.62-1.73c0.81-0.56,1.61-1.11,2.42-1.67c0.47-0.32,0.94-0.65,1.41-0.97c0.65-0.46,1.29-0.92,1.94-1.38
			c1.11-0.91,2.22-1.81,3.33-2.72c0.48-0.34,0.95-0.67,1.43-1.01c0.79-0.62,1.59-1.25,2.38-1.87c1.12-0.98,2.24-1.96,3.37-2.94
			c0.49-0.45,0.99-0.9,1.48-1.36c0.4-0.39,0.8-0.78,1.2-1.18c2.42-2.48,4.84-4.96,7.26-7.44c0.46-0.49,0.91-0.99,1.37-1.48
			c0.81-0.95,1.61-1.91,2.42-2.86c0.08-0.07,0.16-0.15,0.24-0.22c0.14-0.18,0.28-0.36,0.41-0.53c0.58-0.7,1.16-1.41,1.74-2.11
			c0.31-0.43,0.62-0.85,0.93-1.28C1121.97,1473.41,1122.62,1472.55,1123.27,1471.7z"/>
		<path class="st5" d="M945.08,1511.55c-0.78-0.39-1.56-0.77-2.33-1.18c-0.4-0.22-0.77-0.5-1.16-0.76c0.55,0.17,1.1,0.34,1.89,0.58
			c0.09-0.6,0.29-1.2,0.22-1.76c-0.06-0.49-0.32-1.22-0.68-1.35c-0.4-0.15-1.09,0.15-1.48,0.46c-0.29,0.24-0.31,0.82-0.45,1.25
			c-0.11,0.02-0.22,0.04-0.33,0.06c-0.1-0.61-0.2-1.22-0.31-1.94c-0.31,0.59-0.56,1.07-0.81,1.54c-0.4-0.25-0.8-0.5-1.2-0.75
			c1.36-0.5,1.7-1.02,1.23-2.01c-0.59-1.24-1.37-0.52-2.17-0.21c-0.47,0.18-1.26,0.23-1.56-0.04c-0.38-0.34-0.39-1.08-0.59-1.64
			c-0.1-0.27-0.29-0.5-0.44-0.75c-0.26,0.2-0.56,0.37-0.76,0.61c-0.21,0.26-0.33,0.61-0.49,0.92c-0.25-0.16-0.49-0.32-0.74-0.48
			c0.32-0.54,0.64-1.08,1.05-1.76c-0.49-0.89-0.83-0.9-1.75,0.23c-0.68-0.51-1.8-0.49-1.95-1.65c-1.22,0.23-1.7-1.13-2.75-1.27
			c-0.18-0.02-0.38,0.07-0.56,0.1c-0.32-0.24-0.64-0.48-0.97-0.72c0.56-0.46,1.12-0.92,1.72-1.41c-0.58-0.38-1.03-0.67-1.78-1.16
			c-0.17,0.83-0.3,1.48-0.43,2.13c-1.92-1.61-3.85-3.22-5.77-4.84c0.93,0,1.85,0,3.21,0c-0.91-0.81-1.57-1.55-2.38-2.05
			c-0.42-0.25-1.11-0.04-1.68-0.04c0.02,0.09,0.04,0.18,0.06,0.26c0.59,0.32,1.18,0.64,1.78,0.97c-0.06,0.14-0.12,0.27-0.18,0.41
			c-0.57-0.09-1.14-0.19-1.71-0.28c-0.66-0.64-1.32-1.27-1.98-1.91c-0.1-0.65-0.54-1.28-0.06-1.98c0.07-0.1-0.12-0.56-0.27-0.61
			c-0.65-0.22-1.32-0.35-2.2-0.56c-0.02,0.08-0.03-0.32,0.14-0.41c0.97-0.56,0.42-1.03-0.09-1.41c-0.87-0.64-1.64-0.31-2.3,0.42
			c-0.16-0.16-0.33-0.33-0.49-0.49c0.46-0.34,0.92-0.67,1.44-1.05c-0.2-1.2-1.09-1.19-2.07-0.97c-0.04-0.45-0.08-0.8-0.08-0.87
			c-0.64-0.24-1.36-0.29-1.54-0.62c-0.4-0.76-0.89-0.79-1.56-0.58c-1.58-1.84-3.16-3.68-4.74-5.51c0.33-0.29,0.66-0.58,1.06-0.93
			c0.29,0.4,0.58,0.79,0.89,1.2c0.76-1.23,0.54-1.73-0.95-2.12c-0.25,1.1-1.09,0.71-1.82,0.67c-0.22-0.25-0.45-0.49-0.67-0.74
			c0.29-1.32-0.17-1.94-1.23-1.63c-0.78-1.06-1.56-2.11-2.34-3.17c0.29,0.16,0.58,0.32,0.83,0.45c0.29-0.44,0.65-0.87,0.87-1.36
			c0.1-0.22-0.02-0.6-0.17-0.84c-0.07-0.12-0.57-0.17-0.62-0.09c-0.35,0.57-0.63,1.18-0.94,1.78c-0.25-0.38-0.5-0.75-0.75-1.13
			c0.01-0.33,0.01-0.65,0.02-0.98c0.34-0.07,0.68-0.13,1.02-0.2c-0.2-0.73-0.4-1.46-0.61-2.19c-0.14,0.01-0.28,0.02-0.42,0.04
			c-0.07,0.33-0.21,0.66-0.2,0.99c0.01,0.45,0.14,0.91,0.21,1.36c-0.17-0.24-0.32-0.5-0.52-0.73c-1.02-1.2-2.04-2.39-3.07-3.58
			c-0.25-0.4-0.49-0.8-0.74-1.2c0.67,0.45,1.33,0.91,2.02,1.33c0.21,0.13,0.47,0.16,0.71,0.24c0.09-0.28,0.33-0.64,0.24-0.83
			c-0.15-0.31-0.57-0.48-0.8-0.77c-0.2-0.26-0.29-0.61-0.42-0.92c0.32-0.05,0.84-0.26,0.93-0.14c0.63,0.86,1.52,0.59,2.32,0.59
			c20.51,0.01,41.02,0,61.52,0.02c1.71,0,3.42,0.16,5.13,0.22c0.85,0.03,1.7,0.01,2.55,0.01c-0.45-0.45-0.92-0.79-1.42-0.86
			c-0.56-0.08-1.15,0.1-1.8,0.17c-0.04-0.38-0.08-0.66-0.13-1.12c-23.51,0-46.94,0-70,0c-0.81,0.25-1.31,0.4-1.8,0.55
			c-3.76-5.94-6.76-12.25-9.45-18.73c-3.81-9.15-6.51-18.64-8.25-28.38c-1.7-9.54-2.31-19.18-2-28.87
			c0.58-17.84,4.49-34.92,11.69-51.26c4.9-11.12,11.17-21.41,18.77-30.89c5.56-6.93,11.69-13.29,18.45-19.06
			c9.12-7.79,19.08-14.28,29.86-19.53c11.52-5.61,23.62-9.47,36.22-11.74c10.34-1.86,20.79-2.44,31.27-1.91
			c14.79,0.75,29.12,3.78,42.93,9.17c14.42,5.63,27.55,13.42,39.4,23.39c11.29,9.51,20.87,20.49,28.7,33.01
			c8.72,13.95,14.85,28.96,18.12,45.06c1.21,5.96,2.03,12.04,2.46,18.1c0.45,6.28,0.52,12.63,0.2,18.92
			c-0.67,13.19-3.42,26.01-7.91,38.45c-2.67,7.4-5.95,14.51-9.88,21.31c-0.25,0.43,0.17,1.4-0.85,1.34c0.5-0.66,0.36-1.27-0.04-1.95
			c-2.4-4.13-4.77-8.28-7.16-12.43c-5.01-8.71-10.02-17.42-15.05-26.12c-4.55-7.86-9.14-15.7-13.69-23.56
			c-5.11-8.83-10.19-17.68-15.29-26.52c-4.15-7.18-8.31-14.35-12.46-21.52c-3.51-6.06-7-12.14-10.5-18.2
			c-3.25-5.62-6.52-11.23-9.76-16.86c-3.07-5.32-6.09-10.67-9.17-15.98c-3.49-6.03-7.01-12.05-10.53-18.07
			c-1.18-2.02-2.41-4.01-3.61-6.02c-0.05-0.18-0.08-0.38-0.17-0.54c-1.55-2.69-3.11-5.38-4.66-8.07c-2.25-3.9-4.5-7.81-6.76-11.71
			c-0.62-1.07-1.15-1.05-1.78,0.04c-4.96,8.59-9.93,17.19-14.89,25.78c-8.1,14.01-16.2,28.03-24.31,42.04
			c-6.69,11.56-13.39,23.1-20.08,34.66c-4.19,7.24-8.35,14.5-12.54,21.75c-4.17,7.21-8.37,14.4-12.55,21.6
			c-3.66,6.31-7.34,12.61-10.97,18.93c-1.01,1.75-1.91,3.56-2.86,5.35c-0.2,0.23-0.44,0.44-0.59,0.7
			c-3.22,5.55-6.43,11.1-9.64,16.65c-2.93,5.07-5.88,10.12-8.8,15.19c-0.85,1.47-1.65,2.98-2.6,4.7c0.76,0.09,1.29,0.21,1.82,0.21
			c12.92,0.01,25.84,0,38.76,0c62.32,0.01,124.64,0.02,186.95,0.02c4.32,0,8.64-0.06,12.95-0.09c-0.41,0.72-0.81,1.44-1.22,2.16
			c-0.41-0.07-1.06,0-1.19-0.23c-0.49-0.87-1.25-0.72-1.99-0.72c-31.87,0-63.74,0-95.61,0c-0.46,0-0.92,0-1.38,0
			c0,0.56,0,0.95,0,1.44c0.51,0,0.98,0,1.46,0c31.19,0,62.38,0,93.57-0.01c0.63,0,1.37,0.25,1.76-0.6c0.07-0.15,0.59-0.26,0.75-0.15
			c0.67,0.44,1.28,0.97,1.91,1.47c-0.38,0.57-0.76,1.14-1.15,1.7c-0.07-0.03-0.19-0.1-0.22-0.08c-1.14,1.08-3.03,1.13-3.77,2.75
			c-0.09,0.21-0.29,0.38-0.47,0.53c-1.31,1.06-1.32,1.05-0.48,2.88c-0.28,0.2-0.56,0.41-0.91,0.66c0.21,0.35,0.4,0.64,0.58,0.93
			c0,0-0.01,0.01-0.01,0.01c-0.3,0.05-0.6,0.1-0.89,0.15c-0.21-0.38-0.4-0.73-0.63-1.13c-1.02,1.02,0.3,1.23,0.22,1.75
			c-0.22,0.6-0.44,1.19-0.66,1.79c-0.31,0.43-0.62,0.85-0.93,1.28c-0.5,0.09-1.01,0.18-1.29,0.23c-0.63-0.09-1.08-0.15-1.6-0.22
			c0.49,0.88,0.82,1.49,1.16,2.11c-0.14,0.18-0.28,0.36-0.41,0.53c-0.37-0.22-0.73-0.45-1.1-0.67c-0.15,0.53-0.3,1.06-0.45,1.59
			c0.09,0.02,0.19,0.04,0.28,0.06c0.34-0.25,0.69-0.51,1.03-0.76c-0.81,0.95-1.61,1.91-2.42,2.86c0.08-0.28,0.16-0.56,0.26-0.89
			c-0.83,0.73-1.57,1.38-2.42,2.13c0.26,0.08,0.52,0.16,0.79,0.25c-2.42,2.48-4.84,4.96-7.26,7.44c-0.28-0.23-0.57-0.45-0.85-0.68
			c-0.2,0.33-0.48,0.64-0.57,1c-0.06,0.25,0.14,0.57,0.22,0.86c-0.49,0.45-0.99,0.9-1.48,1.36c-0.58-0.16-1.17-0.33-1.75-0.49
			c0.15,0.78-0.88,2-1.67,2.23c-0.48,0.14-0.86,0.64-1.28,0.98c0.41,0.06,0.82,0.13,1.22,0.19c0.04,0.01,0.07,0.03,0.11,0.04
			c-0.79,0.62-1.59,1.25-2.38,1.87c-0.19-0.67-0.37-1.33-0.56-2c-1.46,0.46-1.79,1.23-1.01,2.56c0.08,0.13,0.09,0.3,0.13,0.45
			c-1.11,0.91-2.22,1.81-3.33,2.72c-0.04-0.11-0.08-0.22-0.11-0.33c-0.86,0.31-1.72,0.62-2.82,1.02c0.56,0.39,0.78,0.54,0.99,0.7
			c-0.47,0.32-0.94,0.65-1.41,0.97c-0.22,0-0.45,0-0.72,0c0.36-0.3,0.67-0.56,1.01-0.84c-0.51-0.06-0.95-0.12-1.52-0.19
			c0.42-0.48,0.69-0.79,1.03-1.17c-0.79-0.34-1.26-0.32-1.46,0.49c-0.14,0.57-0.3,1.13-0.46,1.69c-0.02,0-0.04,0-0.05,0
			c-0.09,0.56-0.17,1.12-0.26,1.69c-1.23,0.03-1.57,1.43-2.62,1.73c-0.64-0.32-1.28-0.64-2.17-1.09c-0.13,0.28-0.51,0.79-0.56,1.34
			c-0.02,0.28,0.54,0.62,0.84,0.93c-0.16,0.08-0.33,0.15-0.49,0.23c-0.81,0.29-1.14-0.22-1.43-0.84c-0.21-0.44-0.61-1.02-1-0.31
			c-0.63,1.14-1.66,1.51-2.98,1.76c0.41,0.32,0.66,0.52,1.11,0.87c-0.56,0.03-0.84,0.04-1.01,0.05c-0.41,0.58-0.78,1.09-1.19,1.67
			c0.28,0.06,0.51,0.11,0.73,0.15c-0.98,0.53-1.96,1.05-2.94,1.58c-0.08-0.36-0.16-0.73-0.24-1.09c-0.36,0.25-0.8,0.45-1.07,0.78
			c-0.22,0.28-0.25,0.72-0.36,1.09c-0.74,0.38-1.48,0.76-2.22,1.14c-0.41,0-0.99-0.17-1.21,0.04c-0.89,0.83-1.36,0.62-1.83-0.41
			c-0.1-0.21-0.78-0.21-1.19-0.21c-0.14,0-0.28,0.31-0.42,0.47c0.29,0.16,0.58,0.32,0.86,0.49c0.09,0.06,0.15,0.17,0.34,0.4
			c-0.39,0.27-0.78,0.5-1.11,0.78c-0.19,0.16-0.29,0.42-0.43,0.64c-1.66,0.66-3.32,1.33-4.99,1.99c-0.3-0.08-0.65-0.31-0.89-0.22
			c-0.98,0.33-1.69,0.13-2.46-0.6c-0.35-0.34-1.31-0.6-1.54,0.5c-0.05,0.24-0.3,0.6-0.49,0.62c-1.38,0.17-1.72,1.36-2.35,2.27
			c-0.57,0.23-1.13,0.45-1.7,0.68c-0.4-0.37-0.81-0.74-1.33-1.22c0.65-0.25,1.28-0.5,1.91-0.74c-0.01-0.1-0.01-0.2-0.02-0.3
			c-0.76,0-1.56-0.15-2.25,0.06c-0.32,0.1-0.53,0.87-0.61,1.37c-0.07,0.43,0.1,0.91,0.16,1.37c-0.82,0.18-1.64,0.34-2.46,0.54
			c-0.46,0.12-0.9,0.31-1.35,0.46c-0.26-0.03-0.51-0.05-1.08-0.11c0.6-0.14,0.89-0.21,1.32-0.31c-0.24-0.41-0.43-0.72-0.56-0.93
			c-0.83,0.26-1.5,0.47-2.22,0.7c-0.08-0.56-0.12-0.88-0.16-1.2c-0.11-0.07-0.23-0.14-0.34-0.21c-0.74,0.83-1.48,1.67-2.27,2.56
			c0.56,0.16,0.99,0.29,1.43,0.42c-1.9,0.33-3.8,0.65-5.7,1.01c-0.83,0.16-1.64,0.4-2.46,0.61c0-0.75,0-1.5,0-2.25
			c-0.14-0.08-0.29-0.16-0.43-0.24c-0.35,0.3-0.88,0.55-0.99,0.92c-0.11,0.36,0.2,0.85,0.38,1.45c-0.27-0.02-0.72-0.06-1.17-0.05
			c-0.07,0-0.13,0.29-0.19,0.45c-0.33,0.07-0.66,0.14-0.99,0.21c-0.08-0.12-0.24-0.25-0.23-0.36c0.01-0.24,0.11-0.49,0.17-0.73
			c-0.3,0.04-0.63,0.01-0.89,0.13c-0.23,0.11-0.39,0.38-0.59,0.59c0.23,0.16,0.42,0.29,0.61,0.41c-0.25,0.06-0.49,0.13-0.74,0.19
			c-0.1-0.06-0.25-0.09-0.3-0.17c-0.46-0.75-0.46-0.75-1.46-0.32c-0.1,0.04-0.23,0.03-0.35,0.05c-0.23-0.31-0.45-0.6-0.73-0.97
			c-0.34,0.36-0.56,0.72-0.88,0.89c-0.72,0.39-1.5,0.69-2.25,1.03c-0.66,0.07-1.32,0.13-1.98,0.2c-0.38-0.05-0.78-0.06-1.15-0.17
			c-1.13-0.33-2.65,0.21-3.21-1.7c-0.54,1.36-1.21,1.33-2.06,0.67c-0.22-0.17-0.61-0.14-0.92-0.16c-1.46-0.09-2.93-0.17-4.39-0.23
			c-0.26-0.01-0.53,0.12-1.03,0.24c0.86,0.47,1.44,1.03,2.06,1.08c1.84,0.14,3.69,0.07,5.54,0.11c0.53,0.01,1.07,0.15,1.6,0.22
			c-2.93,0.07-5.86,0.15-8.78,0.18c-0.75,0.01-1.49-0.14-2.24-0.21c-0.01-0.14-0.03-0.28-0.04-0.42c-1.15,0.17-1.91-0.29-2.15-1.49
			c-0.73,0.28-1.3,0.5-1.87,0.72c-0.02,0.13-0.04,0.26-0.06,0.38c0.46,0.12,0.92,0.22,1.36,0.38c0.08,0.03,0.1,0.25,0.15,0.38
			c-0.65-0.07-1.3-0.13-1.95-0.2c-0.29-0.33-0.62-0.65-0.88-1.01c-0.81-1.14-1.96-1.13-2.63,0.05c-0.12,0.22-0.2,0.46-0.3,0.69
			c-0.9-0.13-1.79-0.25-2.69-0.38c0.49-0.2,0.98-0.4,1.52-0.63c-0.77-0.18-1.33-0.32-1.89-0.42c-0.2-0.04-0.43,0.04-0.64,0.06
			c0.09,0.23,0.18,0.45,0.25,0.65c-0.2,0.08-0.41,0.16-0.63,0.24c-0.73-0.13-1.47-0.26-2.2-0.38c0.33-0.18,0.65-0.35,1.13-0.61
			c-0.32-0.27-0.54-0.59-0.7-0.57c-1.4,0.24-2.23-0.71-3.19-1.42c-0.58-0.43-1.22-0.51-1.67,0.14c0.63,0.74,1.21,1.42,1.79,2.1
			c-1.51-0.31-3.02-0.61-4.53-0.92c0.07-0.18,0.14-0.36,0.21-0.55c-0.46-0.16-0.91-0.41-1.37-0.46c-0.33-0.04-0.69,0.2-0.82,0.24
			c0.05-0.78,0.13-1.42,0.08-2.05c-0.01-0.09-1-0.22-1.02-0.16c-0.2,0.63-0.3,1.3-0.46,2.07c0.02-0.01-0.2,0.07-0.42,0.16
			c-1.21-0.31-2.42-0.62-3.64-0.93c0.28-0.17,0.57-0.33,0.88-0.52c-1.07-0.78-1.99-0.75-2.82,0.03c-0.16-0.07-0.32-0.13-0.48-0.2
			c0.08-0.83,0.16-1.65,0.26-2.61c-0.95,0.44-1.92,0.88-2.94,1.36c0.59,0.21,1.16,0.41,1.73,0.61c-0.07,0.12-0.14,0.24-0.21,0.36
			c-1.45-0.47-2.9-0.94-4.35-1.4c-0.02-0.25-0.05-0.51-0.09-0.98c0.5,0.4,0.83,0.66,1.25,1c0.4-0.28,0.82-0.58,1.34-0.95
			c-0.31-0.15-0.38-0.2-0.45-0.21c-1.32-0.16-2.84,0.13-3.48-1.59c-0.03-0.09-0.87-0.04-1.17,0.17c-0.29,0.2-0.37,0.69-0.54,1.06
			c0.28,0.01,0.58-0.05,0.84,0.04c0.24,0.08,0.44,0.3,0.65,0.46c-0.1,0.11-0.2,0.22-0.29,0.33c-0.95-0.34-1.89-0.67-2.84-1.01
			c0.85-0.17,0.86-0.67,0.49-1.46c-0.45,0.15-0.88,0.37-1.32,0.42c-0.34,0.04-1-0.1-1-0.2c-0.05-0.92-0.85-0.84-1.37-1.08
			c-0.25-0.12-0.57-0.1-0.86-0.15c-0.01,0.32-0.02,0.65-0.03,0.97c-0.64-0.3-1.28-0.59-1.92-0.89c-0.05-0.24-0.01-0.55-0.15-0.71
			c-0.99-1.12-2.53-0.98-3.75-1.58c-0.06,0.18-0.12,0.35-0.18,0.53c-0.4-0.2-0.81-0.4-1.21-0.59c-0.28-0.55-0.71-1.13,0.48-1.09
			c0.23,0.01,0.47-0.48,0.7-0.74c-0.22-0.11-0.44-0.32-0.66-0.31c-0.97,0.03-1.93,0.13-3.1,0.21c0.02-0.03-0.15,0.22-0.31,0.47
			c-0.96-0.48-1.91-0.96-2.87-1.44c0.11-0.44,0.22-0.89,0.33-1.33c-0.5,0.2-1,0.41-1.5,0.61
			C945.16,1511.54,945.12,1511.54,945.08,1511.55z M994.79,1459.8c-9.91,0-19.72,0-29.53,0c-0.01,0.1-0.02,0.2-0.02,0.29
			c0.8,0.1,1.6,0.28,2.4,0.28c8.11,0.02,16.23,0.01,24.34,0.02c0.45,0,0.9,0.04,1.49,0.07c-0.32,0.51-0.52,0.83-0.78,1.25
			c9.47,0,18.79,0,28.15,0c-0.42-0.38-0.8-0.72-1.35-1.22c3.46-0.34,6.64,0.32,9.72-0.66c-0.38-0.16-0.76-0.16-1.14-0.16
			c-4.04,0.02-8.07,0.18-12.11,0.39c-6.38,0.33-12.79,0.09-19.18,0.09c-0.6,0-1.38-0.22-1.09,0.93c-0.49-0.14-0.86-0.24-1.26-0.35
			C994.56,1460.38,994.67,1460.11,994.79,1459.8z M1036.59,1524.74c-0.6-0.84-1.54-1.03-2.06-0.42c-0.16,0.19-0.22,0.57-0.15,0.82
			c0.03,0.12,0.48,0.24,0.7,0.18C1035.59,1525.19,1036.08,1524.95,1036.59,1524.74z M1019.17,1527.31c0.03,0.17,0.06,0.35,0.09,0.52
			c0.59,0,1.2,0.05,1.78-0.02c0.24-0.03,0.45-0.3,0.67-0.47c-0.22-0.23-0.48-0.69-0.65-0.66
			C1020.41,1526.81,1019.8,1527.09,1019.17,1527.31z M1006.76,1526.95c-0.01-0.15-0.03-0.29-0.04-0.44
			c-0.49-0.11-0.99-0.26-1.49-0.31c-0.16-0.02-0.41,0.19-0.49,0.36c-0.05,0.11,0.12,0.47,0.2,0.47
			C1005.55,1527.04,1006.16,1526.99,1006.76,1526.95z M1094.84,1497.98c-0.12,0.05-0.24,0.09-0.36,0.14
			c0.25,0.41,0.46,0.87,0.79,1.22c0.11,0.12,0.52-0.05,0.79-0.08C1095.58,1498.74,1095.21,1498.36,1094.84,1497.98z"/>
		<path class="st5" d="M1129.71,1462.31c-0.63-0.5-1.24-1.03-1.91-1.47c-0.16-0.11-0.69,0.01-0.75,0.15
			c-0.39,0.85-1.13,0.6-1.76,0.6c-31.19,0.01-62.38,0.01-93.57,0.01c-0.47,0-0.95,0-1.46,0c0-0.49,0-0.88,0-1.44
			c0.46,0,0.92,0,1.38,0c31.87,0,63.74,0,95.61,0c0.74,0,1.5-0.14,1.99,0.72c0.13,0.23,0.78,0.16,1.19,0.23
			C1130.19,1461.51,1129.95,1461.91,1129.71,1462.31z"/>
		<path class="st5" d="M891.9,1460.57c0.49-0.15,0.99-0.3,1.8-0.55c23.06,0,46.49,0,70,0c0.05,0.46,0.09,0.74,0.13,1.12
			c0.64-0.07,1.24-0.25,1.8-0.17c0.5,0.07,0.96,0.41,1.42,0.86c-0.85,0-1.7,0.03-2.55-0.01c-1.71-0.06-3.42-0.22-5.13-0.22
			c-20.51-0.02-41.02-0.01-61.52-0.02c-0.8,0-1.68,0.27-2.32-0.59c-0.09-0.12-0.61,0.09-0.93,0.14c0.14,0.31,0.22,0.66,0.42,0.92
			c0.22,0.29,0.64,0.46,0.8,0.77c0.09,0.19-0.15,0.55-0.24,0.83c-0.24-0.08-0.5-0.11-0.71-0.24c-0.68-0.43-1.35-0.89-2.02-1.33
			C892.53,1461.58,892.22,1461.08,891.9,1460.57z"/>
		<path class="st5" d="M1123.29,1471.69c-0.18-0.29-0.36-0.59-0.58-0.93c0.35-0.26,0.63-0.46,0.91-0.66
			c-0.84-1.82-0.83-1.82,0.48-2.88c0.18-0.15,0.38-0.32,0.47-0.53c0.74-1.63,2.63-1.68,3.77-2.75c0.03-0.02,0.14,0.05,0.22,0.08
			C1126.8,1466.57,1125.05,1469.13,1123.29,1471.69z"/>
		<path class="st5" d="M1077.23,1511.79c-0.22-0.05-0.44-0.09-0.73-0.15c0.41-0.58,0.78-1.09,1.19-1.67
			c0.16-0.01,0.45-0.02,1.01-0.05c-0.45-0.36-0.71-0.55-1.11-0.87c1.32-0.25,2.34-0.62,2.98-1.76c0.39-0.71,0.79-0.13,1,0.31
			c0.3,0.62,0.63,1.12,1.43,0.84C1081.07,1509.54,1079.15,1510.66,1077.23,1511.79z"/>
		<path class="st5" d="M1052.7,1522.03c0.63-0.91,0.97-2.11,2.35-2.27c0.19-0.02,0.44-0.38,0.49-0.62c0.23-1.11,1.18-0.84,1.54-0.5
			c0.77,0.73,1.48,0.93,2.46,0.6c0.24-0.08,0.59,0.14,0.89,0.22C1057.85,1520.32,1055.27,1521.18,1052.7,1522.03z"/>
		<path class="st5" d="M933.64,1504.57c0.16-0.31,0.27-0.65,0.49-0.92c0.2-0.25,0.5-0.41,0.76-0.61c0.15,0.25,0.34,0.48,0.44,0.75
			c0.21,0.55,0.21,1.3,0.59,1.64c0.3,0.27,1.09,0.22,1.56,0.04c0.81-0.3,1.58-1.03,2.17,0.21c0.47,0.99,0.13,1.51-1.23,2.01
			C936.83,1506.65,935.24,1505.61,933.64,1504.57z"/>
		<path class="st5" d="M1016.45,1528.31c-0.53-0.08-1.07-0.21-1.6-0.22c-1.85-0.04-3.7,0.03-5.54-0.11
			c-0.62-0.05-1.2-0.61-2.06-1.08c0.5-0.12,0.77-0.25,1.03-0.24c1.46,0.06,2.93,0.14,4.39,0.23c0.31,0.02,0.7-0.01,0.92,0.16
			c0.85,0.66,1.52,0.69,2.06-0.67c0.56,1.91,2.08,1.37,3.21,1.7c0.37,0.11,0.77,0.11,1.15,0.17
			C1018.82,1528.26,1017.63,1528.28,1016.45,1528.31z"/>
		<path class="st5" d="M912.04,1486.58c0.66-0.72,1.42-1.06,2.3-0.42c0.52,0.38,1.07,0.85,0.09,1.41c-0.17,0.1-0.16,0.49-0.14,0.41
			c0.87,0.21,1.55,0.34,2.2,0.56c0.15,0.05,0.34,0.51,0.27,0.61c-0.48,0.69-0.04,1.33,0.06,1.98
			C915.23,1489.62,913.63,1488.1,912.04,1486.58z"/>
		<path class="st5" d="M1041.17,1525.18c-0.44-0.13-0.87-0.26-1.43-0.42c0.79-0.9,1.53-1.73,2.27-2.56
			c0.11,0.07,0.23,0.14,0.34,0.21c0.04,0.32,0.09,0.65,0.16,1.2c0.72-0.23,1.4-0.44,2.22-0.7c0.12,0.21,0.31,0.52,0.56,0.93
			c-0.43,0.1-0.72,0.17-1.32,0.31c0.57,0.06,0.83,0.08,1.08,0.11C1043.76,1524.56,1042.47,1524.87,1041.17,1525.18z"/>
		<path class="st5" d="M939.63,1508.45c0.25-0.47,0.5-0.95,0.81-1.54c0.12,0.72,0.21,1.33,0.31,1.94c0.11-0.02,0.22-0.04,0.33-0.06
			c0.14-0.43,0.16-1.01,0.45-1.25c0.39-0.32,1.09-0.61,1.48-0.46c0.36,0.13,0.62,0.86,0.68,1.35c0.07,0.57-0.13,1.17-0.22,1.76
			c-0.79-0.24-1.34-0.41-1.89-0.58C940.94,1509.22,940.28,1508.83,939.63,1508.45z"/>
		<path class="st5" d="M926.93,1499.76c0.19-0.04,0.38-0.13,0.56-0.1c1.05,0.13,1.53,1.49,2.75,1.27c0.15,1.15,1.27,1.14,1.95,1.65
			c0.92-1.13,1.26-1.13,1.75-0.23c-0.4,0.68-0.73,1.22-1.05,1.76C930.91,1502.65,928.92,1501.2,926.93,1499.76z"/>
		<path class="st5" d="M907.73,1481.99c0.67-0.21,1.16-0.18,1.56,0.58c0.18,0.34,0.91,0.38,1.54,0.62c0.01,0.07,0.04,0.42,0.08,0.87
			c0.98-0.22,1.87-0.23,2.07,0.97c-0.52,0.38-0.98,0.71-1.44,1.05C910.28,1484.72,909.01,1483.35,907.73,1481.99z"/>
		<path class="st5" d="M988.12,1526.55c-0.58-0.68-1.16-1.36-1.79-2.1c0.45-0.65,1.09-0.57,1.67-0.14c0.97,0.71,1.8,1.65,3.19,1.42
			c0.16-0.03,0.38,0.3,0.7,0.57c-0.47,0.25-0.8,0.43-1.13,0.61C989.88,1526.79,989,1526.67,988.12,1526.55z"/>
		<path class="st5" d="M966.26,1520.89c0.1-0.11,0.2-0.22,0.29-0.33c-0.22-0.16-0.41-0.38-0.65-0.46c-0.26-0.08-0.56-0.03-0.84-0.04
			c0.17-0.36,0.25-0.86,0.54-1.06c0.31-0.21,1.14-0.27,1.17-0.17c0.64,1.72,2.16,1.43,3.48,1.59c0.07,0.01,0.14,0.06,0.45,0.21
			c-0.52,0.37-0.94,0.67-1.34,0.95c-0.42-0.33-0.75-0.6-1.25-1c0.04,0.47,0.06,0.72,0.09,0.98
			C967.56,1521.33,966.91,1521.11,966.26,1520.89z"/>
		<path class="st5" d="M979.79,1524.87c0.22-0.08,0.44-0.16,0.42-0.16c0.15-0.77,0.25-1.43,0.46-2.07c0.02-0.05,1.01,0.07,1.02,0.16
			c0.06,0.63-0.03,1.27-0.08,2.05c0.13-0.04,0.49-0.27,0.82-0.24c0.47,0.05,0.92,0.3,1.37,0.46c-0.07,0.18-0.14,0.36-0.21,0.55
			C982.32,1525.38,981.05,1525.13,979.79,1524.87z"/>
		<path class="st5" d="M1021.98,1528.03c0.75-0.34,1.53-0.63,2.25-1.03c0.32-0.17,0.54-0.54,0.88-0.89c0.27,0.36,0.5,0.66,0.73,0.97
			c0.12-0.02,0.24-0.01,0.35-0.05c1-0.43,0.99-0.43,1.46,0.32c0.05,0.09,0.2,0.12,0.3,0.17
			C1025.96,1527.69,1023.97,1527.86,1021.98,1528.03z"/>
		<path class="st5" d="M959.33,1518.39c0.01-0.32,0.02-0.65,0.03-0.97c0.29,0.05,0.6,0.03,0.86,0.15c0.52,0.25,1.32,0.17,1.37,1.08
			c0.01,0.09,0.67,0.24,1,0.2c0.44-0.05,0.87-0.27,1.32-0.42c0.37,0.78,0.36,1.28-0.49,1.46
			C962.06,1519.38,960.7,1518.89,959.33,1518.39z"/>
		<path class="st5" d="M1100.9,1495.67c-0.04-0.01-0.07-0.04-0.11-0.04c-0.41-0.06-0.82-0.13-1.22-0.19
			c0.42-0.34,0.8-0.84,1.28-0.98c0.78-0.23,1.82-1.45,1.67-2.23c0.58,0.16,1.17,0.33,1.75,0.49
			C1103.15,1493.7,1102.03,1494.68,1100.9,1495.67z"/>
		<path class="st5" d="M1087.99,1505.29c0.09-0.56,0.17-1.12,0.26-1.69c0.02,0,0.04,0,0.05,0c0.15-0.56,0.32-1.12,0.46-1.69
			c0.19-0.81,0.67-0.83,1.46-0.49c-0.34,0.39-0.6,0.69-1.03,1.17c0.57,0.07,1,0.13,1.52,0.19c-0.34,0.28-0.65,0.54-1.01,0.84
			c0.27,0,0.49,0,0.72,0C1089.61,1504.18,1088.8,1504.73,1087.99,1505.29z"/>
		<path class="st5" d="M1048.86,1523.25c-0.06-0.46-0.24-0.93-0.16-1.37c0.08-0.5,0.29-1.27,0.61-1.37
			c0.69-0.21,1.49-0.06,2.25-0.06c0.01,0.1,0.01,0.2,0.02,0.3c-0.63,0.24-1.25,0.48-1.91,0.74c0.52,0.48,0.92,0.85,1.33,1.22
			C1050.28,1522.89,1049.57,1523.07,1048.86,1523.25z"/>
		<path class="st5" d="M949.24,1513.69c0.17-0.25,0.34-0.51,0.31-0.47c1.16-0.09,2.13-0.18,3.1-0.21c0.22-0.01,0.44,0.2,0.66,0.31
			c-0.23,0.26-0.48,0.75-0.7,0.74c-1.19-0.04-0.76,0.54-0.48,1.09C951.16,1514.66,950.2,1514.18,949.24,1513.69z"/>
		<path class="st5" d="M1065.41,1517.47c0.14-0.22,0.24-0.48,0.43-0.64c0.33-0.29,0.72-0.51,1.11-0.78
			c-0.19-0.23-0.25-0.34-0.34-0.4c-0.28-0.18-0.57-0.33-0.86-0.49c0.14-0.17,0.28-0.47,0.42-0.47c0.41,0,1.1-0.01,1.19,0.21
			c0.47,1.04,0.94,1.24,1.83,0.41c0.22-0.21,0.8-0.03,1.21-0.04C1068.74,1516.01,1067.07,1516.74,1065.41,1517.47z"/>
		<path class="st5" d="M918.79,1493.04c0.57,0.09,1.14,0.19,1.71,0.28c0.06-0.14,0.12-0.27,0.18-0.41
			c-0.59-0.32-1.18-0.64-1.78-0.97c-0.02-0.09-0.04-0.18-0.06-0.26c0.57,0,1.26-0.21,1.68,0.04c0.81,0.49,1.47,1.24,2.38,2.05
			c-1.36,0-2.28,0-3.21,0C919.4,1493.53,919.1,1493.28,918.79,1493.04z"/>
		<path class="st5" d="M997.04,1527.76c0.1-0.23,0.18-0.47,0.3-0.69c0.67-1.19,1.82-1.2,2.63-0.05c0.26,0.36,0.58,0.67,0.88,1.01
			C999.58,1527.94,998.31,1527.85,997.04,1527.76z"/>
		<path class="st5" d="M1097.09,1498.55c-0.04-0.15-0.06-0.32-0.13-0.45c-0.78-1.33-0.45-2.1,1.01-2.56c0.19,0.67,0.37,1.33,0.56,2
			C1098.04,1497.87,1097.57,1498.21,1097.09,1498.55z"/>
		<path class="st5" d="M1083.48,1508.19c-0.3-0.31-0.86-0.65-0.84-0.93c0.05-0.54,0.43-1.06,0.56-1.34
			c0.89,0.45,1.53,0.77,2.17,1.09C1084.74,1507.41,1084.11,1507.8,1083.48,1508.19z"/>
		<path class="st5" d="M1030.61,1527.07c0.06-0.16,0.12-0.45,0.19-0.45c0.45-0.01,0.9,0.03,1.17,0.05
			c-0.17-0.59-0.49-1.09-0.38-1.45c0.11-0.37,0.64-0.62,0.99-0.92c0.14,0.08,0.29,0.16,0.43,0.24c0,0.75,0,1.5,0,2.25
			C1032.21,1526.89,1031.41,1526.98,1030.61,1527.07z"/>
		<path class="st5" d="M1002.81,1528.23c-0.05-0.13-0.07-0.35-0.15-0.38c-0.44-0.15-0.91-0.26-1.36-0.38
			c0.02-0.13,0.04-0.26,0.06-0.38c0.57-0.22,1.14-0.44,1.87-0.72c0.24,1.19,1,1.66,2.15,1.49c0.01,0.14,0.03,0.28,0.04,0.42
			C1004.55,1528.26,1003.68,1528.25,1002.81,1528.23z"/>
		<path class="st5" d="M972.57,1522.96c0.07-0.12,0.14-0.24,0.21-0.36c-0.57-0.2-1.14-0.4-1.73-0.61c1.02-0.47,2-0.92,2.94-1.36
			c-0.09,0.95-0.18,1.78-0.26,2.61C973.34,1523.15,972.96,1523.05,972.57,1522.96z"/>
		<path class="st5" d="M953.33,1515.74c0.06-0.18,0.12-0.35,0.18-0.53c1.22,0.6,2.76,0.46,3.75,1.58c0.14,0.16,0.1,0.47,0.15,0.71
			C956.06,1516.92,954.69,1516.33,953.33,1515.74z"/>
		<path class="st5" d="M893.59,1463.28c1.02,1.19,2.05,2.38,3.07,3.58c0.19,0.23,0.35,0.49,0.52,0.73c0,0,0,0,0,0
			c-0.01,0.33-0.01,0.65-0.02,0.98C895.97,1466.81,894.78,1465.05,893.59,1463.28z"/>
		<path class="st5" d="M902.17,1475.29c0.73,0.04,1.57,0.43,1.82-0.67c1.49,0.39,1.71,0.89,0.95,2.12c-0.31-0.42-0.59-0.8-0.89-1.2
			c-0.4,0.36-0.73,0.65-1.06,0.93C902.72,1476.08,902.45,1475.69,902.17,1475.29z"/>
		<path class="st5" d="M1118.65,1477.66c-0.34-0.61-0.67-1.22-1.16-2.11c0.52,0.07,0.98,0.13,1.6,0.22
			c0.29-0.05,0.79-0.14,1.29-0.23C1119.81,1476.25,1119.23,1476.95,1118.65,1477.66z"/>
		<path class="st5" d="M925.47,1498.61c0.13-0.65,0.26-1.3,0.43-2.13c0.75,0.49,1.19,0.78,1.78,1.16c-0.6,0.49-1.16,0.95-1.72,1.41
			C925.8,1498.9,925.64,1498.75,925.47,1498.61z"/>
		<path class="st5" d="M1121.32,1474.26c0.22-0.6,0.44-1.19,0.66-1.79c0.08-0.52-1.24-0.73-0.22-1.75c0.22,0.4,0.41,0.74,0.63,1.13
			c0.28-0.05,0.59-0.1,0.89-0.15C1122.62,1472.55,1121.97,1473.41,1121.32,1474.26z"/>
		<path class="st5" d="M974.22,1523.44c0.83-0.78,1.74-0.8,2.82-0.03c-0.32,0.19-0.6,0.35-0.88,0.52
			C975.51,1523.77,974.86,1523.61,974.22,1523.44z"/>
		<path class="st5" d="M1091.82,1502.65c-0.22-0.15-0.43-0.3-0.99-0.7c1.1-0.4,1.96-0.71,2.82-1.02c0.04,0.11,0.08,0.22,0.11,0.33
			C1093.12,1501.73,1092.47,1502.19,1091.82,1502.65z"/>
		<path class="st5" d="M1072.62,1514.14c0.11-0.37,0.14-0.81,0.36-1.09c0.27-0.33,0.71-0.53,1.07-0.78
			c0.08,0.36,0.16,0.73,0.24,1.09C1073.74,1513.62,1073.18,1513.88,1072.62,1514.14z"/>
		<path class="st5" d="M1105.75,1491.36c-0.08-0.29-0.29-0.61-0.22-0.86c0.09-0.36,0.37-0.67,0.57-1c0.28,0.23,0.57,0.45,0.85,0.68
			C1106.55,1490.58,1106.15,1490.97,1105.75,1491.36z"/>
		<path class="st5" d="M992.97,1527.28c0.22-0.08,0.43-0.17,0.63-0.24c-0.08-0.19-0.16-0.42-0.25-0.65
			c0.21-0.02,0.44-0.09,0.64-0.06c0.56,0.1,1.12,0.25,1.89,0.42c-0.54,0.22-1.03,0.42-1.52,0.63
			C993.89,1527.35,993.43,1527.32,992.97,1527.28z"/>
		<path class="st5" d="M1114.21,1482.75c-0.27-0.08-0.53-0.17-0.79-0.25c0.85-0.74,1.59-1.4,2.42-2.13
			c-0.1,0.33-0.18,0.61-0.26,0.89C1115.13,1481.76,1114.67,1482.26,1114.21,1482.75z"/>
		<path class="st5" d="M1118,1478.41c-0.34,0.25-0.69,0.51-1.03,0.76c-0.09-0.02-0.19-0.04-0.28-0.06c0.15-0.53,0.3-1.06,0.45-1.59
			c0.37,0.22,0.73,0.45,1.1,0.67C1118.16,1478.26,1118.08,1478.34,1118,1478.41z"/>
		<path class="st5" d="M1028.69,1527.33c-0.19-0.13-0.38-0.26-0.61-0.41c0.2-0.21,0.36-0.48,0.59-0.59c0.26-0.12,0.59-0.1,0.89-0.13
			c-0.06,0.24-0.16,0.48-0.17,0.73c-0.01,0.12,0.15,0.24,0.23,0.36C1029.31,1527.3,1029,1527.32,1028.69,1527.33z"/>
		<path class="st5" d="M945.08,1511.55c0.04-0.01,0.08-0.01,0.12-0.02c0.5-0.2,1-0.4,1.5-0.61c-0.11,0.44-0.22,0.89-0.33,1.33
			C945.94,1512.01,945.51,1511.78,945.08,1511.55z"/>
		<path class="st5" d="M900.27,1472.92c1.06-0.3,1.52,0.31,1.23,1.63C901.09,1474.01,900.68,1473.46,900.27,1472.92z"/>
		<path class="st6" d="M912.8,1421.58c0.95-1.78,1.85-3.6,2.86-5.35c3.64-6.32,7.31-12.63,10.97-18.93
			c4.18-7.2,8.38-14.4,12.55-21.6c4.19-7.24,8.35-14.5,12.54-21.75c6.69-11.56,13.39-23.1,20.08-34.66
			c8.11-14.01,16.21-28.02,24.31-42.04c4.97-8.59,9.93-17.19,14.89-25.78c0.63-1.09,1.15-1.11,1.78-0.04
			c2.26,3.9,4.51,7.81,6.76,11.71c1.55,2.69,3.11,5.38,4.66,8.07c0.09,0.16,0.11,0.36,0.17,0.54c-1.07,1.41-0.93,2.25,0.45,3.29
			c0.32,0.24,0.5,0.7,0.72,1.07c0.22,0.37,0.34,0.83,0.63,1.14c0.94,1,1.38,2.19,1.57,3.52c0.05,0.36,0.19,0.78,0.44,1.02
			c0.61,0.61,1.33,1.08,1.3,2.13c-0.01,0.32,0.52,0.64,0.8,0.97c0.33,0.39,0.79,0.75,0.96,1.2c0.21,0.58,0.26,1.24,0.25,1.86
			c-0.01,0.65,0.21,0.87,0.83,0.81c0.27-0.02,0.72-0.01,0.81,0.15c0.79,1.41,1.62,2.81,2.24,4.31c0.33,0.79,0.25,1.75,0.35,2.6
			c0.48,0.19,1.15,0.26,1.24,0.52c0.37,1.12,1.32,1.85,1.8,2.86c0.32,0.69,0.12,1.68,0.54,2.25c0.67,0.91,1.51,1.65,2.15,2.67
			c0.59,0.94,1.17,1.8,1.44,2.89c0.08,0.33,0.4,0.76,0.7,0.83c0.94,0.25,1.12,0.94,1.18,1.71c0.08,0.96,0.31,1.77,1.28,2.25
			c0.31,0.16,0.52,0.67,0.62,1.06c0.18,0.64,0.24,1.31,0.37,2.09c1.35-0.25,1.52,0.5,1.63,1.59c0.08,0.84,0.38,2.03,0.97,2.36
			c1,0.56,1.17,1.15,0.87,2.22c1.65,0.07,2.13,1,2.01,2.46c-0.03,0.38,0.28,1.08,0.52,1.13c1.67,0.32,1.24,1.77,1.6,2.78
			c0.12,0.34,0.08,0.73,0.14,1.28c0.4-0.35,0.65-0.57,1.17-1.03c0.23,1.12,0.46,1.98,0.57,2.86c0.11,0.91,0.07,1.8,1.28,2.08
			c0.29,0.07,0.46,0.71,0.65,1.1c0.16,0.32,0.21,0.77,0.46,0.98c0.33,0.28,1,0.27,1.17,0.58c0.24,0.45,0.26,1.08,0.19,1.61
			c-0.21,1.74-0.21,1.77,1.72,1.69c0.15,1.13,0.3,2.29,0.46,3.57c-0.01,0,0.18,0.1,0.36,0.09c0.97-0.07,1.61,0.08,1.22,1.32
			c-0.06,0.19,0.44,0.77,0.72,0.81c0.99,0.13,1.07,0.78,1.16,1.53c0.06,0.5,0.03,1.26,0.33,1.45c1.17,0.75,1.69,1.88,2.2,3.06
			c0.03,0.07,0.13,0.11,0.16,0.17c0.47,0.89,1.12,1.75,1.35,2.7c0.36,1.53,1.85,2.48,1.94,4.11c0,0.08,0.25,0.18,0.4,0.21
			c0.97,0.2,1.16,0.95,1.31,1.78c0.17,0.93,0.24,1.94,1.45,2.22c0.16,0.04,0.37,0.24,0.41,0.39c0.22,0.98,0.39,1.97,0.49,2.53
			c0.69,0.74,1.19,1.2,1.58,1.73c0.41,0.56,0.89,1.17,0.2,1.9c-0.1,0.1-0.04,0.54,0.01,0.55c1.24,0.28,1.39,1.91,2.07,2.16
			c1.5,0.55,1.4,1.54,1.44,2.62c0.03,0.77-0.02,1.44,1.07,1.47c0.28,0.01,0.69,0.43,0.8,0.74c0.21,0.62,0.4,1.31,0.34,1.94
			c-0.13,1.29,0.49,1.2,1.18,0.86c0.47,0.78,0.78,1.61,1.36,2.15c0.67,0.62,1.01,1.14,0.9,2.12c-0.08,0.66-0.22,1.78,0.89,1.91
			c0.79,0.09,0.97,0.51,1.15,1.11c0.33,1.11,0.45,2.33,1.68,2.97c0.23,0.12,0.25,0.63,0.35,0.97c0.07,0.26,0.02,0.64,0.18,0.76
			c1.02,0.8,1.75,1.69,1.58,3.11c-0.03,0.21,0.44,0.7,0.66,0.69c1.04-0.04,1.12,0.72,1.3,1.4c0.26,0.98,0.08,2.2,1.52,2.49
			c0.16,0.03,0.29,0.36,0.38,0.57c0.81,1.86,1.6,3.72,2.41,5.57c0.06,0.13,0.23,0.2,0.34,0.31c0.31,0.27,0.71,0.49,0.89,0.83
			c0.37,0.67,0.42,1.76,0.95,2.05c1.34,0.73,1.11,1.84,1.23,2.96c0.04,0.39,0.48,1.08,0.69,1.06c1.3-0.13,1.19,0.71,1.21,1.52
			c0.02,0.8-0.02,1.64,1.18,1.66c0.18,0,0.42,0.45,0.5,0.74c0.27,0.87,0.44,1.78,0.72,2.65c0.09,0.29,0.33,0.54,0.54,0.78
			c1.24,1.41,2.95,2.53,2.83,4.77c-0.02,0.37,0.26,1.07,0.43,1.08c1.24,0.06,1.21,0.89,1.56,1.8c0.57,1.5,1.47,3.04,2.67,4.07
			c0.78,0.68,1,1.22,1.11,2.08c0.08,0.59,0.28,1.57,0.59,1.64c1.04,0.25,1.33,0.87,1.42,1.77c0.07,0.68,0.18,1.37,0.29,2.11
			c1.06-0.02,1.59,0.45,1.55,1.59c-0.01,0.34,0.32,0.87,0.63,1.02c0.97,0.48,1.28,1.21,1.15,2.22c-0.09,0.71,0.18,1.08,0.91,1.26
			c0.35,0.09,0.76,0.5,0.86,0.86c0.2,0.66,0.23,1.38,0.26,2.07c0.03,0.58,0.2,1,0.85,0.78c0.9-0.3,1.1,0.18,1.05,0.89
			c-0.07,0.9,0.36,1.46,0.98,2.05c0.43,0.4,0.85,1.03,0.9,1.59c0.11,1.2,0.62,2.08,1.54,2.78c0.22,0.17,0.45,0.34,0.62,0.56
			c0.47,0.57,0.31,0.97-0.41,1.09c-0.78,0.12-1.58,0.24-2.37,0.25c-3.88,0.02-7.76,0.02-11.64,0c-0.75,0-1.5-0.17-2.24-0.14
			c-1.92,0.08-3.83,0.3-5.75,0.35c-3.19,0.08-6.38,0.08-9.57,0.1c-1.18,0.01-2.36,0-3.54-0.03c-0.83-0.03-1.65-0.19-2.48-0.18
			c-2.13,0.03-4.26,0.14-6.39,0.18c-1.06,0.02-2.12-0.12-3.18-0.09c-0.75,0.02-1.49,0.28-2.23,0.29c-2.1,0.04-4.2,0.08-6.3,0
			c-2.42-0.09-4.84-0.44-7.25-0.44c-6.31,0-12.62,0.15-18.93,0.2c-1.67,0.01-3.34-0.21-5.01-0.21c-1.63,0-3.26,0.22-4.89,0.21
			c-3.87-0.03-7.74-0.18-11.61-0.21c-1.75-0.01-3.51,0.26-5.25,0.17c-2.25-0.12-4.49-0.58-6.69,0.34c-0.2,0.08-0.46,0.07-0.69,0.05
			c-2.53-0.19-5.07-0.52-7.6-0.55c-6.66-0.08-13.32-0.05-19.98-0.02c-2.83,0.01-5.66,0.2-8.49,0.21c-2.21,0.01-4.42-0.21-6.63-0.2
			c-2.63,0.01-5.26,0.22-7.89,0.21c-11.55-0.05-23.1-0.16-34.65-0.21c-2.11-0.01-4.22,0.22-6.33,0.21
			c-2.91-0.01-5.82-0.18-8.73-0.21c-1.47-0.01-2.94,0.19-4.41,0.21c-2.32,0.04-4.64,0.01-6.96,0.01c-1.32,0-2.64,0.04-3.96,0
			c-1.05-0.03-2.1-0.12-3.13-0.3c-0.16-0.03-0.31-1.01-0.28-1.02c1.11-0.4,1.39-1.28,1.72-2.31c0.37-1.19,1.08-2.28,1.68-3.4
			c0.16-0.3,0.37-0.71,0.65-0.79c0.81-0.26,0.95-0.84,1.06-1.55c0.11-0.69,0.17-1.77,0.56-1.95c1.22-0.52,1.35-1.57,1.51-2.53
			c0.14-0.84,0.27-1.32,1.25-1.33c0.31,0,0.93-0.63,0.87-0.85c-0.19-0.79-0.08-1.14,0.71-1.58c0.54-0.3,0.88-1.23,1.02-1.93
			c0.14-0.7,0.3-1.15,1.02-1.42c0.35-0.13,0.71-0.58,0.81-0.96c0.16-0.6,0.09-1.26,0.14-1.9c0.05-0.67,0.21-1.14,1.09-1.03
			c0.24,0.03,0.6-0.48,0.81-0.8c0.27-0.4,0.34-1.11,0.68-1.26c0.71-0.31,0.74-0.76,0.8-1.39c0.2-2.08,0.61-2.59,2.01-2.67
			c0.12-0.68,0.32-1.38,0.34-2.08c0.03-0.8,0.1-1.5,1.15-1.62C913.47,1422.35,913.14,1421.96,912.8,1421.58z M1117.95,1452.47
			c-0.24-0.97-0.34-1.78-0.66-2.5c-0.37-0.86-0.94-1.63-1.4-2.45c-4.5-7.86-8.96-15.75-13.5-23.59
			c-10.28-17.76-20.61-35.49-30.9-53.25c-10.13-17.48-20.22-34.98-30.32-52.47c-8.31-14.38-16.62-28.76-24.91-43.16
			c-1.61-2.79-3.14-5.63-4.69-8.46c-0.55-1.01-1.26-1.14-2.06-0.31c-0.33,0.34-0.65,0.71-0.88,1.11
			c-3.88,6.75-7.73,13.51-11.62,20.25c-6.22,10.79-12.46,21.56-18.71,32.34c-10.03,17.3-20.07,34.6-30.1,51.9
			c-4.34,7.49-8.68,14.99-13,22.5c-6.45,11.21-12.86,22.45-19.31,33.66c-4.18,7.27-8.4,14.51-12.57,21.78
			c-0.21,0.36-0.27,1.01-0.07,1.33c0.21,0.34,0.79,0.55,1.24,0.62c0.35,0.06,0.75-0.17,1.13-0.26c0.26-0.06,0.53-0.17,0.77-0.13
			c0.59,0.1,1.18,0.4,1.76,0.4c9.63,0.02,19.27-0.02,28.9,0.02c20.19,0.08,40.38,0.2,60.57,0.28c20.32,0.08,40.63,0.14,60.95,0.21
			c17.24,0.06,34.47,0.11,51.71,0.17C1112.71,1452.48,1115.14,1452.47,1117.95,1452.47z"/>
		<path class="st4" d="M1046.05,1311.8c-0.98-0.49-1.21-1.29-1.28-2.25c-0.06-0.77-0.24-1.47-1.18-1.71
			c-0.29-0.08-0.61-0.51-0.7-0.83c-0.28-1.09-0.85-1.95-1.44-2.89c-0.64-1.02-1.48-1.76-2.15-2.67c-0.42-0.57-0.22-1.56-0.54-2.25
			c-0.47-1.01-1.42-1.74-1.8-2.86c-0.09-0.26-0.76-0.33-1.24-0.52c-0.1-0.85-0.03-1.81-0.35-2.6c-0.61-1.49-1.44-2.9-2.24-4.31
			c-0.09-0.15-0.53-0.17-0.81-0.15c-0.63,0.06-0.85-0.17-0.83-0.81c0.01-0.62-0.04-1.29-0.25-1.86c-0.17-0.46-0.62-0.81-0.96-1.2
			c-0.28-0.33-0.81-0.65-0.8-0.97c0.03-1.05-0.69-1.52-1.3-2.13c-0.25-0.24-0.39-0.66-0.44-1.02c-0.19-1.33-0.63-2.52-1.57-3.52
			c-0.29-0.3-0.41-0.76-0.63-1.14c-0.22-0.37-0.39-0.83-0.72-1.07c-1.39-1.04-1.53-1.89-0.45-3.29c1.2,2.01,2.43,4,3.61,6.02
			c3.52,6.02,7.04,12.04,10.53,18.07c3.07,5.32,6.1,10.66,9.17,15.98c3.24,5.63,6.51,11.24,9.76,16.86c3.51,6.07,7,12.14,10.5,18.2
			c4.15,7.18,8.32,14.34,12.46,21.52c5.1,8.84,10.18,17.69,15.29,26.52c4.55,7.86,9.14,15.7,13.69,23.56
			c5.03,8.7,10.04,17.41,15.05,26.12c2.39,4.14,4.75,8.29,7.16,12.43c0.4,0.68,0.53,1.29,0.04,1.95c0,0,0.02-0.02,0.02-0.02
			c-4.32,0.03-8.64,0.09-12.95,0.09c-62.32,0-124.64-0.01-186.95-0.02c-12.92,0-25.84,0.01-38.76,0c-0.53,0-1.06-0.12-1.82-0.21
			c0.95-1.72,1.75-3.23,2.6-4.7c2.92-5.07,5.87-10.13,8.8-15.19c3.21-5.55,6.42-11.1,9.64-16.65c0.15-0.26,0.39-0.46,0.59-0.7
			c0.34,0.39,0.67,0.78,1.1,1.27c-1.05,0.13-1.12,0.82-1.15,1.62c-0.02,0.7-0.22,1.4-0.34,2.08c-1.4,0.08-1.81,0.59-2.01,2.67
			c-0.06,0.63-0.09,1.09-0.8,1.39c-0.34,0.15-0.41,0.85-0.68,1.26c-0.21,0.32-0.58,0.83-0.81,0.8c-0.88-0.11-1.04,0.36-1.09,1.03
			c-0.04,0.63,0.02,1.29-0.14,1.9c-0.1,0.37-0.46,0.83-0.81,0.96c-0.72,0.27-0.88,0.72-1.02,1.42c-0.14,0.7-0.48,1.63-1.02,1.93
			c-0.79,0.44-0.9,0.79-0.71,1.58c0.05,0.22-0.56,0.85-0.87,0.85c-0.98,0.01-1.11,0.48-1.25,1.33c-0.16,0.96-0.29,2-1.51,2.53
			c-0.4,0.17-0.46,1.26-0.56,1.95c-0.11,0.71-0.25,1.3-1.06,1.55c-0.27,0.09-0.49,0.49-0.65,0.79c-0.59,1.12-1.3,2.21-1.68,3.4
			c-0.32,1.03-0.61,1.91-1.72,2.31c-0.03,0.01,0.12,0.99,0.28,1.02c1.03,0.18,2.08,0.26,3.13,0.3c1.32,0.04,2.64,0,3.96,0
			c2.32,0,4.64,0.03,6.96-0.01c1.47-0.02,2.94-0.23,4.41-0.21c2.91,0.03,5.82,0.2,8.73,0.21c2.11,0.01,4.22-0.22,6.33-0.21
			c11.55,0.05,23.1,0.16,34.65,0.21c2.63,0.01,5.26-0.2,7.89-0.21c2.21-0.01,4.42,0.21,6.63,0.2c2.83-0.01,5.66-0.19,8.49-0.21
			c6.66-0.03,13.32-0.06,19.98,0.02c2.54,0.03,5.07,0.36,7.6,0.55c0.23,0.02,0.48,0.03,0.69-0.05c2.2-0.92,4.44-0.46,6.69-0.34
			c1.74,0.09,3.5-0.19,5.25-0.17c3.87,0.03,7.74,0.18,11.61,0.21c1.63,0.01,3.26-0.21,4.89-0.21c1.67,0,3.34,0.22,5.01,0.21
			c6.31-0.05,12.62-0.2,18.93-0.2c2.42,0,4.83,0.35,7.25,0.44c2.1,0.08,4.2,0.04,6.3,0c0.75-0.02,1.49-0.27,2.23-0.29
			c1.06-0.03,2.12,0.11,3.18,0.09c2.13-0.03,4.26-0.15,6.39-0.18c0.82-0.01,1.65,0.15,2.48,0.18c1.18,0.04,2.36,0.04,3.54,0.03
			c3.19-0.02,6.38-0.02,9.57-0.1c1.92-0.05,3.83-0.26,5.75-0.35c0.74-0.03,1.49,0.13,2.24,0.14c3.88,0.02,7.76,0.02,11.64,0
			c0.79-0.01,1.58-0.12,2.37-0.25c0.71-0.11,0.88-0.51,0.41-1.09c-0.17-0.21-0.4-0.39-0.62-0.56c-0.92-0.71-1.43-1.58-1.54-2.78
			c-0.05-0.56-0.47-1.19-0.9-1.59c-0.63-0.58-1.05-1.15-0.98-2.05c0.05-0.72-0.15-1.19-1.05-0.89c-0.65,0.21-0.82-0.2-0.85-0.78
			c-0.03-0.7-0.07-1.41-0.26-2.07c-0.11-0.35-0.52-0.77-0.86-0.86c-0.73-0.18-1-0.56-0.91-1.26c0.13-1.01-0.18-1.74-1.15-2.22
			c-0.31-0.16-0.64-0.68-0.63-1.02c0.04-1.15-0.49-1.62-1.55-1.59c-0.1-0.75-0.22-1.43-0.29-2.11c-0.09-0.9-0.38-1.52-1.42-1.77
			c-0.32-0.07-0.51-1.05-0.59-1.64c-0.11-0.87-0.33-1.41-1.11-2.08c-1.19-1.03-2.09-2.57-2.67-4.07c-0.35-0.92-0.31-1.74-1.56-1.8
			c-0.17-0.01-0.45-0.71-0.43-1.08c0.12-2.24-1.59-3.36-2.83-4.77c-0.21-0.24-0.45-0.49-0.54-0.78c-0.27-0.87-0.45-1.77-0.72-2.65
			c-0.09-0.28-0.33-0.73-0.5-0.74c-1.2-0.02-1.16-0.86-1.18-1.66c-0.02-0.82,0.09-1.65-1.21-1.52c-0.2,0.02-0.64-0.67-0.69-1.06
			c-0.12-1.12,0.11-2.23-1.23-2.96c-0.53-0.29-0.58-1.38-0.95-2.05c-0.19-0.34-0.59-0.56-0.89-0.83c-0.12-0.1-0.29-0.18-0.34-0.31
			c-0.81-1.85-1.6-3.72-2.41-5.57c-0.09-0.21-0.22-0.54-0.38-0.57c-1.44-0.28-1.26-1.51-1.52-2.49c-0.18-0.68-0.26-1.44-1.3-1.4
			c-0.22,0.01-0.68-0.48-0.66-0.69c0.17-1.42-0.56-2.31-1.58-3.11c-0.16-0.13-0.11-0.51-0.18-0.76c-0.1-0.34-0.13-0.85-0.35-0.97
			c-1.23-0.64-1.35-1.86-1.68-2.97c-0.18-0.6-0.36-1.02-1.15-1.11c-1.11-0.13-0.97-1.25-0.89-1.91c0.12-0.98-0.22-1.5-0.9-2.12
			c-0.58-0.54-0.89-1.37-1.36-2.15c-0.69,0.33-1.3,0.43-1.18-0.86c0.06-0.63-0.12-1.32-0.34-1.94c-0.11-0.31-0.52-0.73-0.8-0.74
			c-1.09-0.02-1.04-0.7-1.07-1.47c-0.04-1.08,0.06-2.07-1.44-2.62c-0.68-0.25-0.83-1.89-2.07-2.16c-0.05-0.01-0.1-0.45-0.01-0.55
			c0.69-0.73,0.21-1.33-0.2-1.9c-0.39-0.53-0.89-0.98-1.58-1.73c-0.11-0.56-0.28-1.55-0.49-2.53c-0.03-0.16-0.24-0.36-0.41-0.39
			c-1.21-0.28-1.28-1.3-1.45-2.22c-0.15-0.82-0.34-1.57-1.31-1.78c-0.15-0.03-0.4-0.13-0.4-0.21c-0.09-1.62-1.58-2.58-1.94-4.11
			c-0.22-0.95-0.88-1.8-1.35-2.7c-0.04-0.07-0.13-0.11-0.16-0.17c-0.51-1.18-1.03-2.31-2.2-3.06c-0.3-0.19-0.27-0.95-0.33-1.45
			c-0.09-0.75-0.17-1.41-1.16-1.53c-0.29-0.04-0.78-0.62-0.72-0.81c0.39-1.24-0.25-1.39-1.22-1.32c-0.18,0.01-0.37-0.09-0.36-0.09
			c-0.17-1.28-0.32-2.44-0.46-3.57c-1.93,0.08-1.93,0.05-1.72-1.69c0.06-0.53,0.05-1.17-0.19-1.61c-0.16-0.31-0.84-0.3-1.17-0.58
			c-0.25-0.21-0.29-0.65-0.46-0.98c-0.2-0.39-0.36-1.03-0.65-1.1c-1.21-0.29-1.16-1.18-1.28-2.08c-0.11-0.88-0.34-1.74-0.57-2.86
			c-0.52,0.45-0.77,0.68-1.17,1.03c-0.05-0.55-0.02-0.94-0.14-1.28c-0.36-1.01,0.07-2.46-1.6-2.78c-0.25-0.05-0.55-0.75-0.52-1.13
			c0.12-1.46-0.36-2.4-2.01-2.46c0.3-1.07,0.13-1.66-0.87-2.22c-0.59-0.33-0.89-1.52-0.97-2.36c-0.11-1.08-0.28-1.84-1.63-1.59"/>
		<path class="st5" d="M994.79,1459.8c-0.12,0.31-0.23,0.58-0.36,0.92c0.41,0.11,0.77,0.22,1.26,0.35
			c-0.29-1.15,0.49-0.93,1.09-0.93c6.4,0,12.8,0.24,19.18-0.09c4.04-0.21,8.07-0.37,12.11-0.39c0.38,0,0.76,0,1.14,0.16
			c-3.08,0.98-6.26,0.32-9.72,0.66c0.55,0.5,0.94,0.84,1.35,1.22c-9.36,0-18.68,0-28.15,0c0.26-0.42,0.46-0.74,0.78-1.25
			c-0.6-0.03-1.04-0.07-1.49-0.07c-8.11,0-16.23,0.01-24.34-0.02c-0.8,0-1.6-0.18-2.4-0.28c0.01-0.1,0.02-0.2,0.02-0.29
			C975.06,1459.8,984.88,1459.8,994.79,1459.8z"/>
		<path class="st5" d="M897.9,1469.7c0.31-0.6,0.59-1.21,0.94-1.78c0.05-0.08,0.54-0.03,0.62,0.09c0.14,0.23,0.27,0.62,0.17,0.84
			c-0.22,0.49-0.58,0.92-0.87,1.36c-0.25-0.14-0.54-0.3-0.83-0.45C897.93,1469.75,897.9,1469.7,897.9,1469.7z"/>
		<path class="st5" d="M1036.59,1524.74c-0.51,0.2-1,0.45-1.51,0.58c-0.21,0.06-0.66-0.06-0.7-0.18c-0.07-0.25-0.01-0.63,0.15-0.82
			C1035.05,1523.71,1036,1523.9,1036.59,1524.74z"/>
		<path class="st5" d="M1019.17,1527.31c0.63-0.22,1.25-0.5,1.89-0.63c0.17-0.03,0.43,0.43,0.65,0.66
			c-0.22,0.16-0.43,0.44-0.67,0.47c-0.59,0.07-1.19,0.02-1.78,0.02C1019.23,1527.66,1019.2,1527.49,1019.17,1527.31z"/>
		<path class="st5" d="M897.17,1467.59c-0.08-0.45-0.2-0.91-0.21-1.36c-0.01-0.33,0.13-0.66,0.2-0.99c0.14-0.01,0.28-0.02,0.42-0.04
			c0.2,0.73,0.4,1.46,0.61,2.19C897.85,1467.46,897.51,1467.53,897.17,1467.59L897.17,1467.59z"/>
		<path class="st5" d="M1006.76,1526.95c-0.6,0.03-1.21,0.09-1.81,0.08c-0.08,0-0.25-0.37-0.2-0.47c0.08-0.17,0.33-0.38,0.49-0.36
			c0.5,0.05,0.99,0.2,1.49,0.31C1006.74,1526.66,1006.75,1526.81,1006.76,1526.95z"/>
		<path class="st5" d="M1094.84,1497.98c0.37,0.38,0.74,0.77,1.22,1.27c-0.27,0.04-0.68,0.2-0.79,0.08
			c-0.33-0.35-0.54-0.8-0.79-1.22C1094.61,1498.07,1094.72,1498.02,1094.84,1497.98z"/>
		<path class="st5" d="M1117.95,1452.47c-2.81,0-5.25,0.01-7.68,0c-17.24-0.05-34.47-0.11-51.71-0.17
			c-20.32-0.07-40.63-0.13-60.95-0.21c-20.19-0.08-40.38-0.21-60.57-0.28c-9.63-0.04-19.27,0-28.9-0.02c-0.59,0-1.17-0.3-1.76-0.4
			c-0.24-0.04-0.52,0.07-0.77,0.13c-0.38,0.09-0.78,0.32-1.13,0.26c-0.45-0.08-1.02-0.28-1.24-0.62c-0.2-0.31-0.13-0.97,0.07-1.33
			c4.17-7.27,8.39-14.51,12.57-21.78c6.45-11.21,12.86-22.45,19.31-33.66c4.32-7.51,8.66-15.01,13-22.5
			c10.03-17.3,20.07-34.6,30.1-51.9c6.25-10.77,12.49-21.55,18.71-32.34c3.89-6.74,7.74-13.51,11.62-20.25
			c0.23-0.41,0.55-0.77,0.88-1.11c0.8-0.83,1.5-0.7,2.06,0.31c1.55,2.83,3.08,5.67,4.69,8.46c8.29,14.39,16.6,28.77,24.91,43.16
			c10.1,17.49,20.2,34.99,30.32,52.47c10.28,17.76,20.62,35.49,30.9,53.25c4.54,7.84,9,15.72,13.5,23.59
			c0.47,0.82,1.03,1.59,1.4,2.45C1117.61,1450.69,1117.71,1451.5,1117.95,1452.47z M1110.81,1449.37c0.02-0.09,0.04-0.17,0.06-0.26
			c-0.33-0.2-0.67-0.42-1.01-0.61c-4.72-2.7-9.44-5.39-14.16-8.09c-28.17-16.1-56.33-32.2-84.49-48.32c-0.59-0.34-1-0.37-1.62-0.02
			c-17.04,9.77-34.11,19.51-51.16,29.25c-14.67,8.38-29.33,16.76-44,25.15c-1.15,0.66-2.29,1.33-3.68,2.15
			C977.67,1448.87,1044.24,1449.12,1110.81,1449.37z M1110.55,1445.04c0.08-0.08,0.17-0.16,0.25-0.25
			c-32.97-57.01-65.94-114.02-98.91-171.03c-0.08,0.01-0.16,0.03-0.23,0.04c0,0.38,0,0.76,0,1.14c0,37.47,0,74.94-0.02,112.41
			c0,0.81,0.2,1.27,0.94,1.69c8.23,4.67,16.44,9.38,24.66,14.08c21.54,12.31,43.08,24.62,64.61,36.93
			C1104.75,1441.72,1107.65,1443.38,1110.55,1445.04z M909.58,1445.06c0.07,0.06,0.15,0.12,0.22,0.18c0.3-0.16,0.61-0.31,0.91-0.48
			c11.86-6.77,23.71-13.54,35.57-20.32c20.42-11.68,40.83-23.36,61.26-35.01c0.76-0.44,1.03-0.87,1.03-1.75
			c-0.02-37.4-0.02-74.8-0.02-112.2c0-0.38,0-0.75,0-1.13c-0.07-0.01-0.14-0.02-0.21-0.03
			C975.41,1331.23,942.49,1388.15,909.58,1445.06z"/>
		<path class="st7" d="M1110.81,1449.37c-66.57-0.25-133.14-0.5-200.04-0.75c1.39-0.81,2.53-1.49,3.68-2.15
			c14.67-8.38,29.33-16.77,44-25.15c17.06-9.75,34.12-19.48,51.16-29.25c0.62-0.36,1.03-0.32,1.62,0.02
			c28.16,16.12,56.32,32.22,84.49,48.32c4.72,2.7,9.44,5.39,14.16,8.09c0.34,0.19,0.67,0.41,1.01,0.61
			C1110.85,1449.2,1110.83,1449.28,1110.81,1449.37z"/>
		<path class="st7" d="M1110.55,1445.04c-2.9-1.66-5.8-3.33-8.7-4.98c-21.54-12.31-43.08-24.62-64.61-36.93
			c-8.22-4.7-16.43-9.41-24.66-14.08c-0.74-0.42-0.94-0.88-0.94-1.69c0.02-37.47,0.02-74.94,0.02-112.41c0-0.38,0-0.76,0-1.14
			c0.08-0.01,0.16-0.03,0.23-0.04c32.97,57.01,65.94,114.02,98.91,171.03C1110.72,1444.88,1110.63,1444.96,1110.55,1445.04z"/>
		<path class="st7" d="M909.58,1445.06c32.91-56.91,65.83-113.82,98.74-170.73c0.07,0.01,0.14,0.02,0.21,0.03c0,0.38,0,0.75,0,1.13
			c0,37.4,0,74.8,0.02,112.2c0,0.88-0.27,1.31-1.03,1.75c-20.43,11.65-40.84,23.34-61.26,35.01c-11.85,6.78-23.71,13.55-35.57,20.32
			c-0.3,0.17-0.6,0.32-0.91,0.48C909.72,1445.18,909.65,1445.12,909.58,1445.06z"/>
	</g>
</g>
</svg>
