<?xml version="1.0" encoding="utf-8"?>
<!-- Generator: Adobe Illustrator 23.0.1, SVG Export Plug-In . SVG Version: 6.00 Build 0)  -->
<svg version="1.1" id="Capa_1" xmlns="http://www.w3.org/2000/svg" xmlns:xlink="http://www.w3.org/1999/xlink" x="0px" y="0px"
	 viewBox="0 0 23.48 23.48" style="enable-background:new 0 0 23.48 23.48;" xml:space="preserve">
<style type="text/css">
	.st0{fill:#FDFEFE;}
	.st1{fill:#033898;}
	.st2{fill:#F7FAFA;}
	.st3{fill:#FDF002;}
</style>
<g>
	<g>
		<path class="st0" d="M12.12,0c3.79,0,7.58,0,11.37,0c0,3.77,0,7.54,0,11.31c-0.01-0.01-0.02-0.02-0.02-0.04
			c-0.03-0.36-0.06-0.73-0.1-1.09c-0.06-0.57-0.19-1.13-0.35-1.68c-0.26-0.92-0.64-1.79-1.11-2.61c-0.48-0.83-1.05-1.59-1.71-2.28
			c-0.74-0.77-1.56-1.42-2.48-1.97c-0.62-0.37-1.28-0.68-1.96-0.93c-0.62-0.23-1.26-0.41-1.91-0.52c-0.44-0.07-0.89-0.11-1.33-0.16
			C12.38,0.02,12.25,0.01,12.12,0z"/>
		<path class="st0" d="M0,10.91C0,7.27,0,3.64,0,0c3.69,0,7.37,0,11.06,0c-0.02,0.01-0.05,0.03-0.08,0.04
			c-0.13,0.01-0.25,0.01-0.38,0.02C9.99,0.13,9.39,0.23,8.8,0.38C7.59,0.7,6.45,1.2,5.4,1.88C4.33,2.57,3.39,3.41,2.59,4.41
			C1.85,5.34,1.26,6.35,0.82,7.45C0.53,8.2,0.31,8.96,0.18,9.74c-0.06,0.33-0.09,0.66-0.14,0.99C0.02,10.79,0.01,10.85,0,10.91z"/>
		<path class="st0" d="M23.48,12.14c0,3.78,0,7.56,0,11.35c-3.57,0-7.14,0-10.71,0c0.03-0.01,0.05-0.03,0.08-0.04
			c0.08-0.02,0.15-0.03,0.23-0.04c0.16-0.02,0.32-0.05,0.48-0.07c0.83-0.12,1.63-0.34,2.41-0.64c1.69-0.66,3.16-1.66,4.4-3
			c0.84-0.91,1.52-1.93,2.04-3.06c0.44-0.94,0.74-1.93,0.91-2.96c0.08-0.49,0.13-0.98,0.15-1.47
			C23.46,12.17,23.48,12.15,23.48,12.14z"/>
		<path class="st0" d="M10.75,23.48c-3.58,0-7.17,0-10.75,0c0-3.78,0-7.56,0-11.35c0.01,0.02,0.02,0.03,0.02,0.05
			c0.03,0.34,0.04,0.69,0.08,1.03c0.07,0.56,0.18,1.12,0.34,1.66c0.49,1.76,1.36,3.32,2.58,4.69c0.7,0.78,1.48,1.45,2.36,2.02
			c1.43,0.93,2.99,1.51,4.67,1.76c0.04,0.07,0.1,0.04,0.15,0.02c0.02,0,0.04,0.01,0.06,0.01c0.02,0.03,0.06,0.03,0.15,0.02
			c0.01,0,0.03,0,0.04,0c0.02,0.01,0.04,0.01,0.06,0.02C10.59,23.44,10.67,23.46,10.75,23.48z"/>
		<path class="st1" d="M10.04,23.35c-1.68-0.25-3.24-0.84-4.67-1.76c-0.88-0.57-1.66-1.24-2.36-2.02c-1.22-1.36-2.08-2.92-2.58-4.69
			c-0.15-0.55-0.27-1.1-0.34-1.66c-0.04-0.34-0.06-0.69-0.08-1.03c0-0.02-0.01-0.03-0.02-0.05c0-0.26,0-0.51,0-0.77
			c0.01-0.21,0.02-0.42,0.04-0.63c0.05-0.33,0.08-0.66,0.14-0.99C0.32,8.96,0.53,8.2,0.82,7.45c0.44-1.1,1.03-2.12,1.77-3.04
			c0.8-1,1.74-1.84,2.81-2.54C6.46,1.2,7.59,0.7,8.8,0.38c0.59-0.15,1.19-0.26,1.8-0.32c0.13-0.01,0.25-0.01,0.38-0.02
			c0.03,0,0.05-0.02,0.08-0.04c0.35,0,0.7,0,1.06,0c0.13,0.01,0.27,0.02,0.4,0.04c0.44,0.05,0.89,0.09,1.33,0.16
			c0.65,0.11,1.29,0.29,1.91,0.52c0.68,0.25,1.33,0.56,1.96,0.93c0.91,0.54,1.74,1.2,2.48,1.97c0.66,0.69,1.23,1.45,1.71,2.28
			c0.48,0.83,0.85,1.7,1.11,2.61c0.16,0.55,0.28,1.11,0.35,1.68c0.04,0.36,0.06,0.72,0.1,1.09c0,0.01,0.01,0.03,0.02,0.04
			c0,0.28,0,0.55,0,0.83c-0.01,0.02-0.02,0.04-0.02,0.06c-0.02,0.5-0.07,0.99-0.15,1.47c-0.17,1.03-0.47,2.01-0.91,2.96
			c-0.52,1.13-1.2,2.15-2.04,3.06c-1.24,1.34-2.7,2.34-4.4,3c-0.78,0.31-1.58,0.52-2.41,0.64c-0.16,0.02-0.32,0.05-0.48,0.07
			c-0.21,0.01-0.42,0.03-0.63,0.04c-0.13,0.01-0.26,0.02-0.39,0.03c-0.21,0-0.42,0-0.63,0c-0.11-0.01-0.21-0.02-0.32-0.03
			c-0.22-0.02-0.44-0.03-0.66-0.05c-0.01,0-0.03,0-0.04,0c-0.05-0.01-0.1-0.01-0.15-0.02c-0.02,0-0.04-0.01-0.06-0.01
			C10.14,23.37,10.09,23.36,10.04,23.35z M11.74,23.31c6.36,0,11.56-5.19,11.57-11.53c0.01-6.39-5.18-11.59-11.55-11.6
			C5.39,0.16,0.17,5.36,0.17,11.75C0.17,18.11,5.37,23.31,11.74,23.31z"/>
		<path class="st2" d="M12.06,23.48c0.13-0.01,0.26-0.02,0.39-0.03c0.21-0.02,0.42-0.03,0.63-0.04c-0.08,0.01-0.15,0.02-0.23,0.04
			c-0.03,0.01-0.05,0.02-0.08,0.04C12.53,23.48,12.29,23.48,12.06,23.48z"/>
		<path class="st2" d="M10.45,23.41c0.22,0.02,0.44,0.03,0.66,0.05c0.11,0.01,0.21,0.02,0.32,0.03c-0.22,0-0.45,0-0.67,0
			c-0.08-0.02-0.16-0.04-0.25-0.06C10.49,23.42,10.47,23.41,10.45,23.41z"/>
		<path class="st2" d="M0.04,10.73C0.02,10.94,0.01,11.16,0,11.37c0-0.15,0-0.31,0-0.46C0.01,10.85,0.02,10.79,0.04,10.73z"/>
		<path class="st2" d="M10.04,23.35c0.05,0.01,0.1,0.01,0.15,0.02C10.14,23.4,10.08,23.42,10.04,23.35z"/>
		<path class="st2" d="M10.25,23.38c0.05,0.01,0.1,0.01,0.15,0.02C10.31,23.42,10.28,23.41,10.25,23.38z"/>
		<path class="st2" d="M11.74,23.31c-6.37,0-11.57-5.2-11.57-11.56c0-6.38,5.22-11.58,11.59-11.58c6.37,0.01,11.56,5.21,11.55,11.6
			C23.3,18.12,18.1,23.31,11.74,23.31z M21.38,17.33c-0.48,0-0.94,0-1.4,0c-0.97,0-1.94,0-2.91,0c-4.76,0-9.52,0-14.28,0
			c-0.19,0-0.37,0-0.56,0c-0.09,0-0.1-0.03-0.06-0.1c0.34-0.59,0.67-1.19,1.01-1.78c0.18-0.31,0.37-0.61,0.55-0.92
			c0.38-0.66,0.75-1.32,1.13-1.98c0.25-0.44,0.51-0.88,0.76-1.31c0.4-0.69,0.8-1.39,1.21-2.08c0.24-0.41,0.48-0.82,0.71-1.23
			C7.73,7.61,7.91,7.31,8.09,7c0.3-0.51,0.6-1.03,0.89-1.54c0.25-0.43,0.5-0.87,0.75-1.3c0.1-0.18,0.19-0.37,0.29-0.55
			c0.07-0.13,0.17-0.25,0.24-0.38c0.21-0.35,0.41-0.71,0.61-1.06c0.28-0.48,0.56-0.97,0.84-1.45c0.05-0.09,0.09-0.09,0.15,0
			c0.22,0.38,0.44,0.75,0.65,1.13c0.26,0.45,0.52,0.9,0.78,1.35c0.35,0.61,0.7,1.21,1.05,1.82c0.29,0.51,0.59,1.01,0.88,1.52
			c0.35,0.61,0.7,1.22,1.05,1.83c0.33,0.57,0.66,1.13,0.98,1.7c0.32,0.56,0.65,1.12,0.97,1.68c0.29,0.51,0.59,1.01,0.88,1.52
			c0.33,0.57,0.65,1.14,0.98,1.71c0.34,0.59,0.69,1.19,1.03,1.78c0.09,0.16,0.19,0.33,0.29,0.5c0.02-0.02,0.02-0.04,0.03-0.05
			c0.31-0.54,0.57-1.1,0.78-1.69c0.42-1.17,0.64-2.37,0.66-3.61c0.01-0.69-0.05-1.38-0.17-2.07c-0.16-0.92-0.43-1.81-0.82-2.66
			c-0.63-1.38-1.5-2.58-2.61-3.6c-1.03-0.94-2.19-1.67-3.48-2.19c-1.03-0.41-2.1-0.65-3.2-0.73c-0.61-0.05-1.21-0.04-1.82,0.01
			C10.15,0.7,9.53,0.81,8.93,0.97C7.26,1.41,5.77,2.19,4.48,3.32C4.21,3.56,3.96,3.81,3.71,4.06C3.36,4.4,3.05,4.79,2.76,5.18
			C2.11,6.06,1.6,7.02,1.24,8.05c-0.36,1.01-0.56,2.05-0.62,3.12c-0.05,1.04,0.03,2.06,0.27,3.07c0.38,1.61,1.07,3.07,2.11,4.36
			c0.27,0.34,0.56,0.68,0.87,0.99c0.31,0.31,0.65,0.6,1,0.89c0.51,0.42,1.07,0.78,1.66,1.09c0.31,0.17,0.63,0.33,0.96,0.46
			c0.48,0.18,0.97,0.34,1.46,0.49c0.15,0.05,0.31,0.09,0.46,0.11c0.42,0.07,0.84,0.14,1.26,0.19c0.16,0.02,0.33,0.01,0.49,0.02
			c0.13,0.01,0.25,0.03,0.38,0.03c0.75,0.01,1.49-0.04,2.22-0.19c0.3-0.06,0.61-0.13,0.91-0.21c0.57-0.15,1.12-0.35,1.65-0.6
			c0.13-0.06,0.26-0.15,0.39-0.21c0.13-0.06,0.26-0.11,0.39-0.17c0.19-0.1,0.37-0.2,0.54-0.32c0.2-0.13,0.39-0.28,0.59-0.42
			c0.09-0.06,0.19-0.11,0.28-0.18c0.14-0.1,0.27-0.21,0.4-0.32c0.1-0.09,0.21-0.17,0.3-0.27c0.19-0.19,0.4-0.35,0.56-0.57
			c0.1-0.14,0.25-0.23,0.35-0.36c0.27-0.34,0.54-0.68,0.8-1.03C21.09,17.81,21.22,17.57,21.38,17.33z M20.28,16.8
			c-0.02-0.08-0.03-0.15-0.06-0.2c-0.03-0.07-0.07-0.12-0.11-0.19c-0.36-0.63-0.72-1.26-1.08-1.89c-0.82-1.42-1.65-2.84-2.47-4.26
			c-0.81-1.4-1.62-2.8-2.43-4.2c-0.67-1.16-1.34-2.31-2-3.47c-0.12-0.21-0.24-0.41-0.35-0.62c-0.07-0.13-0.11-0.14-0.2-0.04
			c-0.02,0.02-0.03,0.04-0.04,0.06c-0.32,0.55-0.63,1.1-0.94,1.64c-0.48,0.84-0.97,1.67-1.45,2.5C8.77,6.77,8.41,7.39,8.05,8.02
			c-0.58,1-1.16,1.99-1.74,2.99c-0.74,1.28-1.47,2.56-2.21,3.85c-0.33,0.58-0.67,1.16-1,1.73c-0.04,0.06-0.03,0.12,0.02,0.14
			c0.04,0.02,0.1,0,0.15,0c0.02,0,0.05-0.02,0.07-0.01c0.04,0.01,0.09,0.03,0.13,0.03c0.77,0,1.55,0,2.32,0
			c1.62,0.01,3.23,0.02,4.85,0.02c1.64,0.01,3.28,0.01,4.92,0.02c1.36,0,2.72,0.01,4.09,0.01C19.86,16.8,20.05,16.8,20.28,16.8z"/>
		<path class="st1" d="M21.38,17.33c-0.16,0.25-0.3,0.48-0.46,0.71c-0.26,0.35-0.53,0.69-0.8,1.03c-0.1,0.13-0.26,0.22-0.35,0.36
			c-0.16,0.22-0.37,0.39-0.56,0.57c-0.1,0.1-0.2,0.18-0.3,0.27c-0.13,0.11-0.26,0.22-0.4,0.32c-0.09,0.07-0.19,0.12-0.28,0.18
			c-0.2,0.14-0.39,0.29-0.59,0.42c-0.18,0.12-0.36,0.22-0.54,0.32c-0.12,0.07-0.26,0.11-0.39,0.17c-0.13,0.07-0.25,0.15-0.39,0.21
			c-0.53,0.25-1.08,0.45-1.65,0.6c-0.3,0.08-0.6,0.15-0.91,0.21c-0.73,0.14-1.47,0.2-2.22,0.19c-0.13,0-0.25-0.03-0.38-0.03
			c-0.16-0.01-0.33,0-0.49-0.02c-0.42-0.06-0.84-0.12-1.26-0.19c-0.16-0.03-0.31-0.06-0.46-0.11c-0.49-0.16-0.98-0.31-1.46-0.49
			c-0.33-0.13-0.65-0.29-0.96-0.46c-0.59-0.31-1.14-0.66-1.66-1.09c-0.34-0.28-0.68-0.57-1-0.89c-0.31-0.31-0.6-0.64-0.87-0.99
			c-1.04-1.29-1.73-2.75-2.11-4.36c-0.24-1.01-0.32-2.04-0.27-3.07c0.05-1.07,0.26-2.11,0.62-3.12C1.6,7.02,2.11,6.07,2.76,5.18
			c0.29-0.4,0.6-0.78,0.95-1.12c0.25-0.25,0.5-0.5,0.77-0.74c1.3-1.13,2.79-1.91,4.45-2.36c0.6-0.16,1.22-0.26,1.84-0.32
			c0.61-0.05,1.21-0.06,1.82-0.01c1.1,0.08,2.17,0.33,3.2,0.73c1.3,0.51,2.46,1.24,3.48,2.19c1.12,1.02,1.98,2.23,2.61,3.6
			c0.39,0.85,0.66,1.74,0.82,2.66c0.12,0.68,0.18,1.37,0.17,2.07c-0.02,1.24-0.23,2.45-0.66,3.61c-0.21,0.59-0.47,1.15-0.78,1.69
			c-0.01,0.01-0.02,0.03-0.03,0.05c-0.1-0.17-0.19-0.33-0.29-0.5c-0.34-0.59-0.69-1.19-1.03-1.78c-0.33-0.57-0.65-1.14-0.98-1.71
			c-0.29-0.51-0.59-1.01-0.88-1.52c-0.32-0.56-0.65-1.12-0.97-1.68c-0.33-0.57-0.66-1.13-0.98-1.7c-0.35-0.61-0.7-1.22-1.05-1.83
			c-0.29-0.51-0.59-1.01-0.88-1.52C14,4.42,13.65,3.81,13.3,3.2c-0.26-0.45-0.52-0.9-0.78-1.35c-0.22-0.38-0.44-0.75-0.65-1.13
			c-0.06-0.09-0.09-0.1-0.15,0c-0.28,0.48-0.56,0.97-0.84,1.45c-0.2,0.35-0.4,0.71-0.61,1.06c-0.08,0.13-0.17,0.25-0.24,0.38
			c-0.1,0.18-0.19,0.37-0.29,0.55c-0.25,0.44-0.5,0.87-0.75,1.3C8.68,5.97,8.38,6.49,8.09,7C7.91,7.31,7.73,7.61,7.56,7.92
			C7.32,8.33,7.08,8.74,6.84,9.15c-0.4,0.69-0.8,1.39-1.21,2.08c-0.25,0.44-0.51,0.87-0.76,1.31c-0.38,0.66-0.75,1.32-1.13,1.98
			c-0.18,0.31-0.38,0.61-0.55,0.92c-0.34,0.59-0.67,1.18-1.01,1.78c-0.04,0.08-0.03,0.1,0.06,0.1c0.19,0,0.37,0,0.56,0
			c4.76,0,9.52,0,14.28,0c0.97,0,1.94,0,2.91,0C20.44,17.33,20.9,17.33,21.38,17.33z"/>
		<path class="st1" d="M20.28,16.8c-0.22,0-0.42,0-0.61,0c-1.36,0-2.72-0.01-4.09-0.01c-1.64-0.01-3.28-0.01-4.92-0.02
			c-1.62-0.01-3.23-0.02-4.85-0.02c-0.77,0-1.55,0-2.32,0c-0.04,0-0.09-0.02-0.13-0.03c-0.02,0-0.05,0.01-0.07,0.01
			c-0.05,0-0.11,0.02-0.15,0c-0.06-0.03-0.06-0.08-0.02-0.14c0.34-0.58,0.67-1.15,1-1.73c0.74-1.28,1.47-2.56,2.21-3.85
			c0.58-1,1.16-1.99,1.74-2.99c0.36-0.62,0.72-1.25,1.08-1.88c0.48-0.84,0.97-1.67,1.45-2.5c0.32-0.55,0.63-1.1,0.94-1.64
			c0.01-0.02,0.03-0.04,0.04-0.06c0.09-0.11,0.14-0.09,0.2,0.04c0.11,0.21,0.23,0.42,0.35,0.62c0.67,1.16,1.34,2.31,2,3.47
			c0.81,1.4,1.62,2.8,2.43,4.2c0.82,1.42,1.65,2.84,2.47,4.26c0.36,0.63,0.72,1.26,1.08,1.89c0.04,0.06,0.08,0.12,0.11,0.19
			C20.24,16.65,20.25,16.72,20.28,16.8z M19.7,16.55c0-0.01,0-0.01,0-0.02c-0.03-0.02-0.05-0.03-0.08-0.05
			c-0.76-0.43-1.52-0.87-2.27-1.3c-1.87-1.07-3.75-2.14-5.62-3.21c-0.05-0.03-0.08-0.03-0.13,0c-1,0.57-2,1.14-3,1.72
			c-1.54,0.88-3.07,1.76-4.61,2.64c-0.09,0.05-0.18,0.1-0.27,0.16c0,0,0,0.01,0.01,0.02C9.05,16.51,14.38,16.53,19.7,16.55z
			 M19.68,16.21c0.01-0.01,0.01-0.01,0.02-0.02c-2.64-4.56-5.28-9.12-7.91-13.68c-0.01,0-0.01,0-0.02,0.01c0,0.03,0,0.06,0,0.08
			c0,3,0,6,0,9c0,0.07,0.03,0.1,0.08,0.13c1.02,0.58,2.04,1.16,3.05,1.75c1.26,0.72,2.53,1.44,3.79,2.16
			C19.02,15.83,19.35,16.02,19.68,16.21z M11.52,2.55c-0.01,0-0.01,0-0.02,0C8.87,7.1,6.24,11.65,3.61,16.2
			c0.01,0.01,0.02,0.01,0.02,0.02c0.02-0.01,0.05-0.02,0.07-0.04c0.95-0.54,1.89-1.08,2.84-1.62c1.63-0.93,3.27-1.87,4.9-2.8
			c0.06-0.03,0.08-0.07,0.08-0.13c0-2.99,0-5.98,0-8.98C11.52,2.61,11.52,2.58,11.52,2.55z"/>
		<path class="st3" d="M19.7,16.55c-5.32-0.02-10.65-0.04-15.97-0.06c0,0,0-0.01-0.01-0.02c0.09-0.05,0.18-0.1,0.27-0.16
			c1.54-0.88,3.07-1.76,4.61-2.64c1-0.57,2-1.14,3-1.72c0.05-0.03,0.08-0.03,0.13,0c1.87,1.07,3.75,2.14,5.62,3.21
			c0.76,0.43,1.52,0.87,2.27,1.3c0.03,0.02,0.05,0.03,0.08,0.05C19.71,16.54,19.7,16.55,19.7,16.55z"/>
		<path class="st3" d="M19.68,16.21c-0.33-0.19-0.66-0.38-0.99-0.57c-1.26-0.72-2.53-1.44-3.79-2.16c-1.02-0.58-2.04-1.16-3.05-1.75
			c-0.06-0.03-0.08-0.06-0.08-0.13c0-3,0-6,0-9c0-0.03,0-0.06,0-0.08c0.01,0,0.01,0,0.02-0.01c2.64,4.56,5.28,9.12,7.91,13.68
			C19.69,16.19,19.69,16.2,19.68,16.21z"/>
		<path class="st3" d="M11.52,2.55c0,0.03,0,0.06,0,0.09c0,2.99,0,5.98,0,8.98c0,0.06-0.02,0.1-0.08,0.13
			c-1.63,0.93-3.27,1.87-4.9,2.8c-0.95,0.54-1.89,1.08-2.84,1.62c-0.02,0.01-0.05,0.02-0.07,0.04c-0.01-0.01-0.02-0.01-0.02-0.02
			c2.63-4.55,5.26-9.1,7.89-13.64C11.51,2.55,11.51,2.55,11.52,2.55z"/>
	</g>
</g>
</svg>
